<?xml version="1.0" encoding="UTF-8"?>
<svg id="Pfote" xmlns="http://www.w3.org/2000/svg" viewBox="0 0 79.72 79.36">
  <defs>
    <style>
      .cls-1 {
        stroke-linecap: round;
        stroke-linejoin: round;
      }

      .cls-1, .cls-2 {
        stroke-width: .5px;
      }

      .cls-1, .cls-2, .cls-3 {
        fill: none;
        stroke: #3c3c3b;
      }

      .cls-2 {
        stroke-miterlimit: 10;
      }

      .cls-4 {
        fill: #3c3c3b;
      }

      .cls-4, .cls-5 {
        stroke-width: 0px;
      }

      .cls-3 {
        stroke-linecap: square;
        stroke-linejoin: bevel;
        stroke-width: .44px;
      }

      .cls-5 {
        fill: #9e1460;
      }
    </style>
  </defs>
  <g>
    <path class="cls-5" d="m38.42,38.97c.76,1.4.14,3.87-1.49,4.84h0c-1.03.61-2.53.52-3.25-.5-.07-.1-.1-.16-.13-.22,0-.02-.06-.15-.08-.18-.35-.78-.46-1.91-.37-3.04.18-2.02,1.01-4.02,2.35-3.95.83.04,1.3.67,1.89,1.46.39.52.88,1.18,1.1,1.59Z"/>
    <path class="cls-5" d="m27.35,36.62c.33-.46.91-1.21,1.3-1.48,1.46-.98,2.16.22,2.87,1.35s1.16,2.28,1.03,3.36c-.05.38-.16.74-.35,1.1-.56,1.01-1.3,2.29-2.89,2.5-.68.08-1.19-.28-1.62-.94-.23-.36-.44-.81-.63-1.33-.76-2.03-.87-2.97.3-4.57Z"/>
    <path class="cls-5" d="m24.22,48.41c-1.74-.76-3.23-3.51-2.49-5.03.28-.57.66-1.17,1-1.57.32-.38.73-.61,1.08-.69.91-.18,2.06.39,2.74.93.17.13.32.3.45.49.2.33.34.73.42,1.18.11.78-.09,2.79-.32,3.29-.16.36-.33.67-.56.9-.05.05-.09.1-.15.14-.57.47-1.54.64-2.18.36Z"/>
    <path class="cls-5" d="m39.62,49.5c-.32.36-.36.5-.82.82-.88.61-2.48.45-3.26-.2-.15-.13-.27-.27-.35-.43-.79-1.51.47-3.34,1.17-4.25.45-.61.89-1.18,1.41-1.47.28-.17.57-.24.92-.21.95.17,1.08,1.26,1.36,2.2.44,1.44.57,2.41-.43,3.54Z"/>
    <path class="cls-5" d="m37.24,53.24c.13.76-.39,1.71-1.12,2.05-.77.38-2.12.34-2.93.34-.87,0-1.88-.03-2.85-.16-2.36-.33-5.25-1.66-5.44-4.29.03-1.23,1.39-2.01,2.26-2.8.11-.1.21-.2.32-.29.72-.69,1.28-1.34,2.07-1.83,2.33-1.46,4.11-.64,4.44,1.87.07.63.35,1.45.79,1.97.1.12.21.24.32.37.83.85,1.98,1.75,2.14,2.77Z"/>
    <path class="cls-4" d="m40.95,12.32c-.35,7.99-.75,7.9-2.51,8.19h-.08s-3.42-.39-3.76-1.14c-.56.29,6.21-14.04.42-11.63h0c-3.18,1.99-2.87,1.45-14.49,15.31h0s.06.04.06.04c-7.63,9.44-6.77,9.59-18.3,20.31l-.03-.03-2.01-2.36C20.37,23.38,21.61,17.58,25.78,13.06c1.97-2.31,3.48-4.62,7.08-9.05,2.75-3.61,4.06-4.55,5.04-3.13,3.51,4.44,3.25,6.82,3.05,11.44Z"/>
    <path class="cls-5" d="m24.14,40.83c-.96-.43-.12-2.06.17-2.13.16,0,.06.45.08.69.27.4.46,1.09.09,1.4-.1.09-.25.08-.34.05Z"/>
    <path class="cls-5" d="m30.28,34.21c-.11.55-.88.38-.95.05-.08-.68.29-1.33.34-1.49.1-.28.28-.44.31-.17.1.87.32.97.3,1.61Z"/>
    <path class="cls-5" d="m35.46,35.57c-.24-.33.12-1.49.35-2.03.27.53.69.89.54,1.87-.06.39-.7.39-.89.16Z"/>
    <path class="cls-5" d="m39.4,43.73c-.23-.72.1-.73.53-1.39.17-.2.46-.47.5-.32.12.37-.05,1.65-.2,1.87-.33.42-.72.16-.83-.16Z"/>
    <path class="cls-4" d="m59.11,46.84c-.18,1.44,2.24,2.93,3.41,3.67.39.24.69.41.79.46.7.42,1.4.8,2.1,1.15l-2.36.71c-3.7-2.22-6.72-4.35-6.67-5.85.15-3.93.06-4.67-.67-5.89-1.82-3.14-4.29-4.81-6.72-6.97-.35-.31-12.79-9.8-14.26-11.62.68-.43,4.29,1.19,5.53,1.72,4.6,2.23,8.02,5.39,11.2,7.99.32.2,6.5,6.22,7.36,7.84,1.49,1.85.72,3.21.3,6.8Z"/>
    <path class="cls-4" d="m46.09,63.07c.35.17,3.12,1.53,4.5,1.78,1.97.64,5.66,1.62,7.79,2.13,4.73,1.13,8.34,2.01,10.54,1.84,4.91-.37,7.11-5.01,7.15-7.06.04-1.84-7.3-5.49-13.02-8.93l2.36-.71c3.04,1.51,6.11,2.52,9.11,4.32.88.59,5.29,3.49,4.96,5.69-.4,2.76-4.93,8.84-9.95,9.2-2.91.21-8.61-.63-11.69-1.4,4.62,4.04,5.53,5.06,4.22,6.19-5.55,4.85-11.53,2.89-13.75.69-5.34-5.26-19.13-10.54-20.78-11.38q.96-1.42,4.55-.36c7.69,2.28,16.01,6.5,18.88,8.42,3.52,2.35,1.84,2.52,5.66.99.83-.33,1.3-.77,1.3-.77,0,0-3.02-2.69-3.89-3.52-1.2-1.14-7.56-5.56-8.18-6.96.25-.16.15-.21.25-.16Z"/>
  </g>
  <g>
    <path class="cls-3" d="m65.41,52.12c3.04,1.51,6.11,2.52,9.11,4.32.88.59,5.29,3.49,4.96,5.69-.4,2.76-4.93,8.84-9.95,9.2-2.91.21-8.61-.63-11.69-1.4,4.62,4.04,5.53,5.06,4.22,6.19-5.55,4.85-11.53,2.89-13.75.69-5.34-5.26-19.13-10.54-20.78-11.38q.96-1.42,4.55-.36c7.69,2.28,16.01,6.5,18.88,8.42,3.52,2.35,1.84,2.52,5.66.99.83-.33,1.3-.77,1.3-.77,0,0-3.02-2.69-3.89-3.52-1.2-1.14-7.56-5.56-8.18-6.96.25-.16.15-.21.25-.16.35.17,3.12,1.53,4.5,1.78,1.97.64,5.66,1.62,7.79,2.13,4.73,1.13,8.34,2.01,10.54,1.84,4.91-.37,7.11-5.01,7.15-7.06.04-1.84-7.3-5.49-13.02-8.93-3.7-2.22-6.72-4.35-6.67-5.85.15-3.93.06-4.67-.67-5.89-1.82-3.14-4.29-4.81-6.72-6.97-.35-.31-12.79-9.8-14.26-11.62.68-.43,4.29,1.19,5.53,1.72,4.6,2.23,8.02,5.39,11.2,7.99.32.2,6.5,6.22,7.36,7.84,1.49,1.85.72,3.21.3,6.8-.18,1.44,2.24,2.93,3.41,3.67.39.24.69.41.79.46.7.42,1.4.8,2.1,1.15Z"/>
    <path class="cls-2" d="m20.59,23.1c-7.63,9.44-6.77,9.59-18.3,20.31"/>
    <path class="cls-1" d="m38.44,20.52c1.76-.29,2.16-.21,2.51-8.19.2-4.62.46-7.01-3.05-11.44-.98-1.41-2.29-.48-5.04,3.13-3.6,4.43-5.11,6.74-7.08,9.05-4.17,4.52-5.41,10.32-25.53,27.97l2.01,2.36"/>
    <path class="cls-2" d="m19.87,23.84c.22-.27.44-.53.65-.78,11.62-13.86,11.31-13.32,14.49-15.3"/>
    <path class="cls-2" d="m34.59,19.38c-.56.29,6.21-14.04.42-11.63-.09.03-.19.08-.28.12"/>
    <path class="cls-1" d="m34.69,19.27c-.05.06-.08.1-.1.11"/>
    <path class="cls-1" d="m34.59,19.38c.34.74,3.76,1.15,3.76,1.15"/>
    <path class="cls-2" d="m34.58,19.36s0,0,0,.02"/>
  </g>
</svg>