<?xml version="1.0" encoding="UTF-8"?>
<svg xmlns="http://www.w3.org/2000/svg" viewBox="0 0 363.32 247.92">
  <defs>
    <style>
      .cls-1 {
        fill: #706f6f;
      }

      .cls-2 {
        fill: #9e1460;
        fill-rule: evenodd;
      }

      .cls-3 {
        fill: #1d1d1b;
      }

      .cls-4 {
        stroke-linecap: square;
        stroke-linejoin: bevel;
        stroke-width: .44px;
      }

      .cls-4, .cls-5, .cls-6 {
        fill: none;
        stroke: #706f6f;
      }

      .cls-5 {
        stroke-linecap: round;
        stroke-linejoin: round;
      }

      .cls-5, .cls-6 {
        stroke-width: .5px;
      }

      .cls-7 {
        fill: #575756;
      }

      .cls-6 {
        stroke-miterlimit: 10;
      }

      .cls-8 {
        fill: #a3195b;
      }
    </style>
  </defs>
  <g id="Sch채fi_Teil_1" data-name="Sch채fi Teil 1">
    <g>
      <g>
        <path class="cls-1" d="M337.62,90.47c-1.2-1.14-7.56-5.56-8.18-6.96.25-.16.15-.21.25-.16.35.17,3.12,1.53,4.5,1.78,1.97.64,5.66,1.62,7.79,2.13,4.73,1.13,8.34,2.01,10.54,1.84,4.91-.37,7.11-5.01,7.15-7.06.05-2.36-12.01-7.68-17.28-11.74l2.49-.39c.47.32.93.59,1.24.78.45.27,8.31,3.81,12,6.03.88.59,5.29,3.49,4.96,5.69-.4,2.76-4.93,8.84-9.95,9.2-2.91.21-8.61-.63-11.69-1.4,4.62,4.04,5.53,5.06,4.22,6.19-5.55,4.85-11.53,2.89-13.75.69-5.34-5.26-19.13-10.54-20.78-11.38q.96-1.42,4.55-.36c7.69,2.28,16.01,6.5,18.88,8.42,3.52,2.35,1.84,2.52,5.66.99.83-.33,1.3-.77,1.3-.77,0,0-3.02-2.69-3.89-3.52Z"/>
        <path class="cls-1" d="M339.32,61.37c-1.82-3.14-4.29-4.81-6.72-6.97-.35-.31-12.79-9.8-14.26-11.62.68-.43,4.29,1.19,5.53,1.72,4.6,2.23,8.02,5.39,11.2,7.99.32.2,6.5,6.22,7.36,7.84,1.49,1.85.72,3.21.3,6.8-.12,1,1.07,2.04,2.16,2.8l-2.49.39c-1.49-1.16-2.45-2.2-2.41-3.05.15-3.93.06-4.67-.67-5.89Z"/>
      </g>
      <path class="cls-4" d="M344.88,69.92c.47.32.93.59,1.24.78.45.27,8.31,3.81,12,6.03.88.59,5.29,3.49,4.96,5.69-.4,2.76-4.93,8.84-9.95,9.2-2.91.21-8.61-.63-11.69-1.4,4.62,4.04,5.53,5.06,4.22,6.19-5.55,4.85-11.53,2.89-13.75.69-5.34-5.26-19.13-10.54-20.78-11.38q.96-1.42,4.55-.36c7.69,2.28,16.01,6.5,18.88,8.42,3.52,2.35,1.84,2.52,5.66.99.83-.33,1.3-.77,1.3-.77,0,0-3.02-2.69-3.89-3.52-1.2-1.14-7.56-5.56-8.18-6.96.25-.16.15-.21.25-.16.35.17,3.12,1.53,4.5,1.78,1.97.64,5.66,1.62,7.79,2.13,4.73,1.13,8.34,2.01,10.54,1.84,4.91-.37,7.11-5.01,7.15-7.06.05-2.36-12.01-7.68-17.28-11.74-1.49-1.16-2.45-2.2-2.41-3.05.15-3.93.06-4.67-.67-5.89-1.82-3.14-4.29-4.81-6.72-6.97-.35-.31-12.79-9.8-14.26-11.62.68-.43,4.29,1.19,5.53,1.72,4.6,2.23,8.02,5.39,11.2,7.99.32.2,6.5,6.22,7.36,7.84,1.49,1.85.72,3.21.3,6.8-.12,1,1.07,2.04,2.16,2.8Z"/>
    </g>
    <g>
      <g>
        <path class="cls-1" d="M318.61,28.03h0c-3.03,1.9-2.89,1.49-12.98,13.52l-1.87-.67c2.53-3.35,3.8-5.57,5.62-7.55,1.96-2.31,3.48-4.62,7.07-9.05,2.76-3.6,4.07-4.54,5.05-3.13,3.52,4.44,3.25,6.82,3.05,11.44-.35,7.99-.76,7.91-2.52,8.2h-.08s-3.45-.4-3.77-1.15c-.59.38,6.23-14.02.42-11.62Z"/>
        <path class="cls-1" d="M303.77,40.89l1.87.67c-.67.8-1.39,1.65-2.16,2.57l.02.02c-7.45,9.23-6.69,9.35-18.12,19.99-23.25,21.64-54.74,23.75-82.67,27.83-9.64,1.4-30.12,1.91-53.54,13.78-8.88,4.49-19.63,10.07-27.74,15.69-15.61,10.83-32.5,19.62-47.79,28.41-10.53,6.06-23.12,9.91-23.54,8.38-.32-1.13,1.64-1.16,2.99-1.56.02,0,.04,0,.06-.02,14.09-4.17,18.65-7.16,39.77-20.22,28.21-17.46,51.39-41.56,93.55-46.43,41.11-4.75,67.95-2.64,97.32-28.69h.07c11.32-9.93,16.66-16.11,19.91-20.42Z"/>
      </g>
      <g>
        <path class="cls-6" d="M303.67,43.93c-.06.07-.11.14-.17.21-7.45,9.23-6.69,9.35-18.12,19.99-23.25,21.64-54.74,23.75-82.67,27.83-9.64,1.4-30.12,1.91-53.54,13.78-8.88,4.49-19.63,10.07-27.74,15.69-15.61,10.83-32.5,19.62-47.79,28.41-10.53,6.06-23.12,9.91-23.54,8.38-.32-1.13,1.64-1.16,2.99-1.56"/>
        <path class="cls-6" d="M53.09,156.67s.04,0,.06-.02c14.09-4.17,18.65-7.16,39.77-20.22,28.21-17.46,51.39-41.56,93.55-46.43,41.11-4.75,67.95-2.64,97.32-28.69"/>
        <path class="cls-5" d="M322.04,40.8c1.76-.29,2.17-.21,2.52-8.2.2-4.62.47-7-3.05-11.44-.98-1.41-2.29-.48-5.05,3.13-3.59,4.43-5.11,6.74-7.07,9.05-1.82,1.98-3.09,4.2-5.62,7.55-3.25,4.31-8.59,10.5-19.91,20.42"/>
        <path class="cls-6" d="M303.48,44.12c.77-.92,1.49-1.77,2.16-2.57,10.09-12.03,9.95-11.62,12.98-13.51"/>
        <path class="cls-6" d="M318.19,39.65c-.59.38,6.23-14.02.42-11.62-.09.03-.18.07-.28.12"/>
        <path class="cls-5" d="M318.29,39.55c-.04.06-.08.09-.1.1"/>
        <path class="cls-5" d="M318.19,39.65c.32.75,3.77,1.15,3.77,1.15"/>
        <line class="cls-6" x1="318.18" y1="39.64" x2="318.19" y2="39.65"/>
      </g>
    </g>
  </g>
  <g id="Hundeschule_1" data-name="Hundeschule 1">
    <g>
      <path class="cls-3" d="M38.83,109.76c.21.45.48,1.03.79,1.75.31.71.7,1.59,1.15,2.62s.98,2.24,1.59,3.62c.6,1.38,1.3,2.95,2.09,4.72,1.5-.78,2.95-1.52,4.34-2.23,1.39-.71,2.77-1.4,4.13-2.08,1.36-.68,2.72-1.35,4.09-2.02,1.37-.67,2.78-1.36,4.24-2.07-.49-1.11-.98-2.22-1.46-3.33-.48-1.11-.99-2.29-1.51-3.53-.52-1.24-1.08-2.57-1.66-4.01-.58-1.43-1.22-3.03-1.91-4.78-.1-.24-.13-.48-.07-.71.05-.23.16-.45.31-.66.15-.21.34-.4.57-.58.23-.17.47-.32.72-.44.31-.15.66-.26,1.05-.35.39-.09.79-.14,1.21-.15.68,1.84,1.34,3.59,1.98,5.26.64,1.67,1.29,3.29,1.93,4.85.64,1.56,1.28,3.11,1.93,4.62.64,1.52,1.31,3.04,2,4.57.69,1.53,1.4,3.09,2.13,4.67.73,1.59,1.51,3.24,2.33,4.96.54,1.14,1.05,2.09,1.53,2.85.48.76.96,1.34,1.44,1.74.48.4.98.62,1.49.66.51.04,1.07-.08,1.68-.36.43-.21.87-.46,1.3-.75.43-.29.93-.73,1.5-1.31l1.07,1.11c-.6.7-1.18,1.32-1.72,1.88-.54.56-1.05,1.05-1.54,1.48-.49.43-.96.8-1.41,1.11-.45.31-.9.57-1.34.79-.6.29-1.19.42-1.75.41-.57-.01-1.12-.21-1.68-.59-.55-.38-1.11-.97-1.66-1.76-.56-.79-1.14-1.81-1.74-3.08l-1.74-3.66c-.4-.85-.78-1.66-1.14-2.43-.36-.77-.71-1.52-1.04-2.24-.33-.72-.65-1.43-.96-2.11-.31-.68-.61-1.36-.91-2.04-1.46.69-2.88,1.37-4.24,2.04-1.37.66-2.73,1.34-4.08,2.02s-2.73,1.39-4.12,2.12c-1.39.73-2.83,1.49-4.32,2.29l8.04,18.29-3.54,2.27-.3.1c-1.34-3.14-2.62-6.12-3.84-8.95-1.22-2.82-2.42-5.56-3.59-8.22-1.17-2.65-2.34-5.26-3.52-7.83-1.17-2.56-2.38-5.15-3.63-7.77-.24-.5-.48-.92-.72-1.25-.24-.33-.51-.56-.81-.69-.3-.13-.64-.17-1.02-.12-.38.06-.83.21-1.35.46-.7.33-1.56.84-2.57,1.52l-.79-1.26c1.35-1.13,2.51-2.04,3.48-2.75.98-.71,1.82-1.23,2.54-1.58.71-.34,1.31-.51,1.8-.51.49,0,.92.13,1.3.41.37.28.71.67,1,1.19.3.52.61,1.12.94,1.81Z"/>
      <path class="cls-3" d="M77.86,103.46c.42.69.84,1.45,1.28,2.26s.86,1.65,1.29,2.5c.43.85.85,1.71,1.26,2.56.41.85.81,1.66,1.18,2.42.37.76.72,1.46,1.04,2.09.32.63.6,1.15.85,1.56.73,1.21,1.49,1.96,2.28,2.24.79.29,1.56.2,2.31-.25.85-.52,1.44-1.51,1.77-2.98.33-1.47.36-3.35.09-5.63-.27-2.28-.8-4.71-1.58-7.29-.78-2.58-1.87-5.21-3.28-7.89l2.95-2.33.25-.13c.5,1.02,1.03,2.09,1.61,3.22.58,1.13,1.17,2.25,1.76,3.37.6,1.12,1.19,2.21,1.79,3.26.6,1.06,1.16,2.02,1.69,2.89,1,1.66,1.92,2.96,2.75,3.89.83.94,1.58,1.62,2.24,2.04s1.26.63,1.79.63c.53,0,.98-.13,1.38-.36.23-.14.44-.31.63-.51.19-.2.36-.4.51-.61.15-.21.27-.41.38-.61.1-.2.19-.38.26-.54l.92.4c-.11.48-.26.97-.47,1.46-.21.5-.46.97-.75,1.41-.29.45-.63.86-1.01,1.25-.38.38-.81.72-1.27,1-.58.35-1.22.58-1.91.67-.69.1-1.41,0-2.16-.29-.75-.29-1.54-.82-2.35-1.58-.81-.76-1.63-1.82-2.45-3.18-.26-.44-.52-.88-.77-1.35-.25-.46-.51-.95-.77-1.47-.26-.52-.53-1.09-.82-1.71-.28-.61-.59-1.29-.92-2.04l-.18.07c.86,2.97,1.42,5.55,1.67,7.77.25,2.21.27,4.1.08,5.66-.2,1.57-.58,2.83-1.15,3.79-.57.96-1.23,1.68-2,2.14-.57.35-1.18.58-1.83.7-.65.12-1.31.08-2-.12-.69-.2-1.38-.6-2.07-1.19-.7-.59-1.37-1.43-2.03-2.52-.43-.71-.89-1.56-1.38-2.55-.49-.99-1.01-2.04-1.56-3.16-.55-1.12-1.12-2.27-1.73-3.45-.61-1.18-1.24-2.33-1.92-3.44-.27-.45-.52-.82-.75-1.13-.23-.31-.46-.54-.69-.69-.23-.15-.47-.22-.73-.2-.26.02-.56.13-.9.33-.34.21-.75.53-1.24.96-.48.43-.98.92-1.47,1.46l-.89-.96c.65-.79,1.25-1.51,1.83-2.16.57-.65,1.1-1.21,1.57-1.69s.88-.87,1.22-1.18c.34-.3.6-.51.79-.62.36-.22.7-.33,1.01-.34.31,0,.61.07.91.24.29.17.58.42.85.74.27.32.54.71.82,1.17Z"/>
      <path class="cls-3" d="M100.21,90.76c-.24-.43-.46-.77-.69-1.03-.22-.26-.45-.44-.67-.54s-.45-.13-.69-.1c-.24.04-.49.13-.75.27-.37.2-.78.5-1.24.89-.46.39-.96.85-1.52,1.39l-.85-1c.59-.66,1.16-1.29,1.71-1.87s1.07-1.11,1.55-1.58c.48-.47.91-.86,1.3-1.18.39-.32.7-.55.95-.69.6-.33,1.16-.41,1.69-.23.53.17,1.04.7,1.52,1.57.06.1.18.35.37.74.19.39.43.89.71,1.49.29.6.61,1.3.98,2.08.37.78.75,1.62,1.15,2.51.4.89.82,1.81,1.24,2.77.42.96.83,1.91,1.24,2.87l.1-.04c-.7-3.12-1.12-5.84-1.24-8.19-.13-2.34-.04-4.34.24-6s.75-3,1.38-4.01c.63-1.01,1.36-1.75,2.2-2.21.57-.32,1.19-.51,1.84-.59.65-.08,1.32,0,2,.26.68.25,1.35.68,2.02,1.3.66.62,1.29,1.46,1.88,2.54.17.31.39.74.64,1.29.25.54.53,1.15.84,1.83.31.67.62,1.39.96,2.15.33.76.67,1.5,1,2.23.33.73.66,1.41.97,2.06.31.65.6,1.21.86,1.68.45.81.85,1.46,1.19,1.93.35.47.68.81,1,1.03.32.21.64.3.95.27.32-.03.66-.15,1.03-.36.53-.29,1.05-.68,1.54-1.14.49-.47.96-1,1.39-1.59l.74.65c-.2.51-.5,1.07-.89,1.7-.39.62-.83,1.24-1.3,1.84-.48.6-.98,1.16-1.51,1.66-.53.5-1.03.88-1.5,1.14-.55.31-1.07.4-1.56.27-.49-.13-.95-.41-1.4-.84-.45-.43-.89-.98-1.32-1.66-.43-.67-.87-1.41-1.31-2.21-.54-.98-1.06-2-1.57-3.08-.51-1.07-.98-2.1-1.41-3.08-.44-.98-.83-1.87-1.19-2.68-.36-.8-.66-1.43-.91-1.89-.67-1.22-1.39-1.99-2.16-2.32-.77-.33-1.53-.28-2.28.13-.6.33-1.08.93-1.46,1.8-.38.87-.64,1.93-.8,3.18-.16,1.25-.21,2.65-.14,4.19s.25,3.15.55,4.83c.3,1.68.71,3.37,1.24,5.09.53,1.72,1.18,3.37,1.95,4.95l-3,2.18-.25.12c-.46-1.03-.98-2.15-1.55-3.36-.57-1.21-1.16-2.43-1.76-3.66-.6-1.24-1.21-2.46-1.81-3.66-.61-1.21-1.17-2.33-1.7-3.38-.53-1.04-1.01-1.98-1.44-2.8s-.78-1.46-1.04-1.93Z"/>
      <path class="cls-3" d="M139.41,42.51c.68,2.97,1.4,6,2.17,9.1.76,3.09,1.57,6.16,2.41,9.2.84,3.04,1.72,6.01,2.64,8.92.92,2.91,1.88,5.67,2.87,8.28.48,1.25.9,2.33,1.27,3.22.37.89.7,1.63,1,2.23.3.6.57,1.06.81,1.39s.48.56.72.7c.23.14.47.2.7.18.23-.02.49-.08.77-.19.53-.2,1.06-.5,1.61-.89.55-.39,1.08-.85,1.59-1.38l.64.75c-.27.47-.64.99-1.11,1.55-.47.56-.98,1.11-1.53,1.63-.55.53-1.11,1-1.68,1.41-.56.41-1.08.71-1.54.88-.34.13-.65.2-.93.22-.28.02-.55-.04-.81-.16s-.51-.33-.76-.6-.51-.65-.77-1.12c-.35-.63-.73-1.38-1.13-2.24-.4-.87-.8-1.82-1.19-2.87-.42-1.11-.81-2.26-1.17-3.44-.36-1.18-.66-2.38-.91-3.59l-.16.02c.01,2.58-.13,4.97-.42,7.17-.3,2.2-.73,4.14-1.29,5.83-.56,1.69-1.24,3.08-2.04,4.18-.8,1.1-1.69,1.83-2.66,2.21-.99.38-1.93.45-2.84.21s-1.74-.68-2.51-1.33-1.47-1.48-2.1-2.46c-.63-.99-1.16-2.05-1.59-3.18-.52-1.37-.89-2.77-1.1-4.21s-.26-2.86-.16-4.26c.1-1.4.35-2.76.74-4.07.39-1.31.93-2.52,1.61-3.62.69-1.1,1.51-2.07,2.48-2.92.96-.84,2.07-1.5,3.31-1.98.87-.33,1.77-.55,2.72-.65.94-.11,1.94-.07,2.99.12-.66-1.91-1.33-3.85-1.99-5.84-.66-1.98-1.29-3.91-1.88-5.8-.59-1.89-1.14-3.68-1.63-5.37-.49-1.69-.91-3.21-1.25-4.56-.07-.28-.07-.54,0-.79.07-.25.19-.47.36-.67.17-.2.39-.38.64-.54.25-.16.52-.29.81-.4.66-.25,1.42-.33,2.27-.26ZM142.45,68.24c-1.75-.15-3.36.06-4.81.61-1.06.4-1.98.95-2.74,1.63-.76.69-1.39,1.47-1.87,2.34-.48.88-.84,1.83-1.06,2.85-.23,1.02-.34,2.07-.33,3.14,0,1.07.11,2.15.32,3.23.2,1.08.5,2.12.88,3.12.14.36.31.76.52,1.21.21.45.45.9.74,1.36.28.46.59.9.92,1.31.33.41.69.77,1.06,1.06s.77.49,1.18.59.83.07,1.27-.09c.79-.3,1.48-.91,2.07-1.82.59-.91,1.09-2.01,1.5-3.3.41-1.29.72-2.7.93-4.25.21-1.54.33-3.09.36-4.65.03-1.56-.04-3.06-.19-4.51-.16-1.45-.4-2.73-.73-3.83Z"/>
      <path class="cls-3" d="M175.24,77.17c.08.02.18.05.3.08.12.04.24.08.35.14.11.05.21.12.3.19.09.07.14.15.16.23.01.05,0,.1-.02.15-.42,1.05-.92,2-1.5,2.84-.58.84-1.21,1.58-1.9,2.21-.69.63-1.42,1.16-2.19,1.57-.77.41-1.56.71-2.35.9-1.37.33-2.69.34-3.97.05-1.28-.29-2.44-.84-3.5-1.62-1.06-.79-1.97-1.79-2.75-3-.78-1.21-1.35-2.58-1.71-4.09-.29-1.24-.45-2.51-.48-3.81-.03-1.3.08-2.57.32-3.82.24-1.24.61-2.43,1.11-3.57.5-1.14,1.13-2.18,1.89-3.11.76-.93,1.65-1.73,2.67-2.4,1.02-.67,2.16-1.16,3.44-1.46.84-.2,1.68-.28,2.5-.23.82.05,1.57.22,2.25.52.68.3,1.27.72,1.76,1.28.49.55.84,1.24,1.03,2.05.28,1.18.15,2.3-.4,3.36-.55,1.06-1.42,2.05-2.61,2.99-1.19.93-2.64,1.8-4.36,2.61-1.72.81-3.61,1.55-5.66,2.24l.07.29c.35,1.48.86,2.79,1.52,3.93.66,1.14,1.42,2.07,2.28,2.78s1.78,1.21,2.78,1.49c.99.28,2,.29,3.01.05,1.03-.25,2.02-.75,2.98-1.52.96-.77,1.85-1.87,2.68-3.29ZM168.71,64.01c-.13-.53-.33-1.01-.62-1.43-.29-.42-.63-.76-1.02-1.03-.4-.27-.83-.45-1.31-.54-.48-.09-.97-.08-1.47.04-.74.18-1.38.47-1.92.88-.54.41-1,.9-1.37,1.47s-.67,1.2-.89,1.9c-.22.69-.38,1.41-.47,2.16-.09.74-.14,1.49-.12,2.25.01.75.06,1.48.16,2.18,1.59-.5,3-1.05,4.21-1.64,1.22-.59,2.21-1.21,2.99-1.87.78-.66,1.33-1.35,1.65-2.08.32-.73.39-1.5.2-2.29Z"/>
      <path class="cls-3" d="M181.23,75.31c.23.88.6,1.6,1.09,2.18.5.58,1.06,1.02,1.7,1.34.64.31,1.32.51,2.04.59.72.08,1.42.07,2.11-.05.64-.11,1.23-.3,1.79-.58.56-.28,1.04-.62,1.43-1.02.4-.41.69-.87.88-1.4.19-.53.23-1.09.13-1.69-.11-.62-.34-1.14-.71-1.56-.37-.42-.83-.78-1.38-1.09-.55-.3-1.18-.57-1.87-.78-.7-.22-1.42-.44-2.17-.66-.66-.19-1.33-.38-2-.57-.67-.19-1.32-.42-1.96-.67-.64-.25-1.24-.54-1.82-.87-.57-.33-1.09-.7-1.55-1.14-.46-.43-.85-.94-1.17-1.52-.32-.58-.54-1.24-.67-1.99-.14-.81-.12-1.58.04-2.3.16-.73.44-1.4.82-2.03.39-.63.86-1.2,1.42-1.72.56-.52,1.18-.97,1.85-1.37.67-.4,1.37-.73,2.11-.99.73-.26,1.46-.46,2.18-.58.93-.16,1.82-.2,2.68-.14.86.06,1.64.24,2.32.53.69.29,1.26.68,1.72,1.18.46.5.75,1.1.87,1.81.05.27.05.57.01.9-.04.33-.15.66-.32.97-.17.31-.42.59-.75.84-.33.25-.75.42-1.27.52-.49.08-1.01.09-1.56.03l-.08-.17c.1-.4.16-.77.17-1.1.02-.33,0-.63-.05-.9-.1-.54-.32-.97-.64-1.29-.32-.32-.7-.57-1.13-.74-.43-.17-.9-.26-1.4-.29-.5-.02-.98,0-1.44.08-.82.14-1.54.38-2.15.71-.61.33-1.11.72-1.49,1.17-.38.45-.65.92-.81,1.43-.16.51-.19,1.02-.11,1.52.11.64.38,1.19.8,1.65.42.45.95.85,1.57,1.18.63.33,1.34.63,2.12.88.79.25,1.61.5,2.46.74.95.27,1.9.56,2.84.86.94.3,1.81.69,2.59,1.14.78.46,1.44,1.02,1.99,1.7.55.67.91,1.51,1.08,2.52.21,1.21.12,2.32-.24,3.35s-.94,1.94-1.7,2.73c-.77.79-1.7,1.46-2.78,1.98-1.08.53-2.24.9-3.46,1.1-.61.1-1.25.17-1.92.18-.67.02-1.33-.02-1.97-.1-.65-.08-1.27-.22-1.86-.4-.6-.18-1.13-.42-1.6-.7-.47-.29-.86-.63-1.17-1.03-.31-.4-.51-.86-.6-1.39-.08-.46-.05-.86.09-1.21.14-.35.34-.65.62-.9.28-.25.6-.46.97-.63.37-.17.76-.29,1.16-.37l.16.1Z"/>
      <path class="cls-3" d="M211.25,59.32c.21-.7.26-1.38.14-2.05-.08-.46-.23-.87-.46-1.25-.23-.38-.52-.69-.89-.95-.37-.25-.8-.43-1.3-.53-.5-.1-1.06-.09-1.69.02-.9.16-1.68.46-2.34.91-.66.45-1.21,1-1.66,1.66-.45.66-.8,1.39-1.06,2.2-.26.81-.44,1.65-.54,2.54s-.13,1.78-.09,2.69c.04.9.13,1.78.28,2.62.27,1.51.7,2.85,1.31,4.02.6,1.17,1.31,2.13,2.12,2.88.81.76,1.7,1.3,2.66,1.62.96.33,1.94.4,2.93.23,1.05-.18,2.07-.65,3.05-1.4.98-.75,1.87-1.83,2.67-3.25.08.02.17.06.29.1.12.05.24.1.34.17.11.07.2.13.29.2.08.07.13.14.15.21,0,.05,0,.08,0,.09l-.02.08c-.8,2.04-1.9,3.65-3.31,4.84-1.41,1.19-3.05,1.95-4.92,2.28-1.02.18-1.98.2-2.88.06-.91-.14-1.75-.4-2.53-.79-.78-.39-1.5-.88-2.15-1.49-.65-.6-1.22-1.28-1.72-2.03-.5-.75-.91-1.56-1.25-2.42-.34-.86-.59-1.75-.75-2.67-.22-1.23-.3-2.49-.25-3.77.05-1.28.23-2.54.54-3.77.31-1.23.75-2.41,1.31-3.53.56-1.12,1.24-2.12,2.04-3.02.8-.9,1.73-1.65,2.77-2.26,1.05-.61,2.21-1.03,3.48-1.25.95-.17,1.85-.21,2.71-.12.86.09,1.63.3,2.3.62.67.32,1.23.75,1.68,1.3.45.54.73,1.18.86,1.92.08.48.09.92,0,1.31-.08.39-.23.75-.44,1.06-.21.31-.49.56-.81.76-.33.2-.7.33-1.12.4-.26.04-.52.06-.8.06-.28,0-.56-.04-.85-.11l-.1-.18Z"/>
      <path class="cls-3" d="M226.63,65.03c-.08-3.14.04-5.86.35-8.17.31-2.3.76-4.24,1.35-5.8.59-1.56,1.29-2.79,2.1-3.66s1.67-1.47,2.57-1.76c.62-.21,1.27-.28,1.93-.23s1.3.26,1.92.62c.62.36,1.19.9,1.72,1.61.53.71.98,1.63,1.35,2.75.11.34.24.81.39,1.4.15.59.32,1.26.5,2,.18.74.36,1.51.55,2.33.19.81.38,1.62.58,2.4.2.79.39,1.53.57,2.23.19.7.36,1.3.53,1.8.29.88.56,1.59.82,2.12.25.53.52.93.79,1.2.27.27.57.41.88.44.32.03.68-.03,1.08-.16.58-.19,1.15-.47,1.72-.84.57-.37,1.12-.8,1.67-1.31l.61.78c-.29.46-.69.96-1.19,1.5-.5.54-1.04,1.06-1.63,1.56-.58.5-1.18.95-1.79,1.35s-1.17.68-1.69.84c-.6.2-1.13.19-1.58-.02-.45-.21-.86-.58-1.22-1.08-.36-.51-.69-1.13-.99-1.87-.3-.74-.59-1.54-.87-2.42-.34-1.05-.66-2.15-.96-3.29-.3-1.14-.57-2.24-.82-3.3-.25-1.05-.48-2.02-.69-2.9s-.4-1.57-.57-2.09c-.41-1.25-.96-2.12-1.64-2.59-.68-.47-1.43-.57-2.25-.3-.63.21-1.22.71-1.76,1.5-.54.79-1,1.78-1.39,2.98-.39,1.2-.7,2.56-.93,4.09s-.35,3.15-.37,4.85c-.02,1.7.07,3.45.27,5.23.2,1.79.53,3.53.99,5.23l-3.42,1.61-.27.07c-.37-1.36-.78-2.85-1.22-4.49s-.92-3.37-1.41-5.21c-.5-1.84-1.02-3.75-1.55-5.75-.54-2-1.09-4.03-1.65-6.09-.56-2.07-1.12-4.15-1.69-6.26s-1.13-4.18-1.68-6.23c-.56-2.05-1.1-4.06-1.63-6.02-.53-1.96-1.04-3.84-1.53-5.63-.08-.27-.08-.53,0-.78.08-.25.21-.46.41-.66.19-.19.42-.37.69-.52.27-.15.56-.28.88-.38.67-.22,1.43-.27,2.28-.15.5,2.39.97,4.58,1.4,6.57.43,1.99.83,3.84,1.21,5.53.38,1.7.74,3.28,1.08,4.74.34,1.46.67,2.87.99,4.21.32,1.34.64,2.64.96,3.92.32,1.27.64,2.56.97,3.88.33,1.31.68,2.67,1.04,4.09.36,1.41.74,2.94,1.16,4.57l.11-.02Z"/>
      <path class="cls-3" d="M252.48,39.93c.47.66.96,1.37,1.46,2.15.5.78,1,1.57,1.49,2.39.5.81.99,1.63,1.47,2.45.48.82.94,1.59,1.38,2.32.43.73.84,1.39,1.21,2s.7,1.1.98,1.48c.83,1.15,1.65,1.83,2.46,2.05.81.22,1.57.07,2.29-.45.81-.58,1.31-1.62,1.52-3.12.21-1.49.08-3.37-.38-5.62-.46-2.25-1.19-4.63-2.18-7.13-.99-2.5-2.3-5.03-3.92-7.59l2.75-2.57.24-.15c.58.98,1.2,2,1.88,3.08.67,1.08,1.35,2.15,2.04,3.21.69,1.07,1.37,2.1,2.06,3.1.68,1,1.33,1.92,1.92,2.74,1.14,1.57,2.16,2.79,3.06,3.65.9.86,1.7,1.48,2.41,1.85.7.37,1.31.52,1.83.48s.97-.21,1.34-.48c.22-.16.41-.34.59-.56.17-.21.32-.43.45-.65s.24-.43.33-.64c.09-.21.16-.39.22-.55l.95.32c-.07.49-.18.99-.35,1.5s-.38,1-.63,1.47c-.25.47-.55.91-.91,1.33-.35.42-.74.78-1.18,1.1-.55.4-1.16.68-1.84.83-.68.15-1.41.12-2.18-.11-.78-.23-1.6-.69-2.47-1.38s-1.77-1.68-2.71-2.97c-.3-.41-.59-.84-.88-1.28-.29-.44-.58-.91-.89-1.4s-.62-1.04-.96-1.63c-.33-.59-.69-1.24-1.08-1.96l-.18.08c1.11,2.88,1.88,5.42,2.31,7.6.43,2.18.62,4.06.55,5.64-.07,1.58-.34,2.87-.83,3.88-.49,1.01-1.09,1.77-1.81,2.3-.54.39-1.13.68-1.76.85-.63.17-1.3.19-2,.04-.7-.15-1.42-.49-2.16-1.02-.74-.53-1.49-1.31-2.24-2.34-.49-.67-1.02-1.48-1.59-2.43-.57-.95-1.17-1.95-1.81-3.02-.64-1.07-1.31-2.17-2.01-3.3-.7-1.13-1.43-2.22-2.2-3.26-.31-.42-.59-.78-.84-1.07-.25-.29-.5-.5-.74-.63s-.49-.18-.75-.14c-.25.04-.54.17-.87.41-.32.23-.71.59-1.16,1.06s-.9,1-1.35,1.57l-.97-.88c.58-.84,1.12-1.61,1.64-2.31.52-.69.99-1.3,1.42-1.81.43-.52.8-.94,1.12-1.27.32-.33.56-.56.73-.69.34-.25.67-.39.98-.42.31-.03.62.02.92.17.31.14.61.37.91.66.3.3.6.67.92,1.1Z"/>
      <path class="cls-3" d="M258.03,2.19c1.35,1.52,2.75,3.07,4.18,4.65,1.43,1.58,2.89,3.17,4.38,4.76,1.48,1.59,2.99,3.18,4.51,4.77,1.52,1.58,3.03,3.13,4.53,4.63,1.5,1.51,2.99,2.96,4.47,4.38,1.48,1.41,2.93,2.74,4.33,3.99.88.78,1.64,1.44,2.29,1.98.65.54,1.22.98,1.69,1.32.48.34.89.58,1.23.74.34.15.64.23.89.24.25,0,.47-.06.67-.18s.4-.3.6-.53c.37-.42.71-.93,1.02-1.53.3-.6.56-1.25.77-1.96l.92.37c-.02.54-.11,1.17-.27,1.89-.16.71-.36,1.43-.6,2.16-.25.72-.52,1.4-.83,2.03-.31.63-.63,1.12-.96,1.49-.42.47-.88.74-1.37.8s-1.07-.08-1.75-.43c-.68-.34-1.48-.89-2.4-1.64s-2.01-1.68-3.29-2.81c-.46-.41-1.11-1.01-1.95-1.8s-1.8-1.71-2.89-2.77c-1.09-1.06-2.29-2.22-3.59-3.48-1.3-1.26-2.64-2.57-4.02-3.92-1.38-1.35-2.77-2.72-4.17-4.11-1.4-1.39-2.75-2.73-4.06-4.03s-2.53-2.52-3.69-3.68c-1.15-1.15-2.17-2.17-3.05-3.06-.21-.2-.34-.42-.39-.68-.05-.25-.05-.51.02-.77.07-.26.18-.53.33-.79.15-.26.33-.51.54-.74.47-.53,1.1-.95,1.9-1.28Z"/>
      <path class="cls-3" d="M304.58,11.13c.07-.03.17-.08.29-.12.12-.05.24-.09.36-.11.12-.03.23-.04.35-.04.11,0,.2.02.27.07.04.03.06.07.08.13.34,1.09.55,2.14.63,3.15s.06,1.99-.08,2.91c-.13.93-.37,1.79-.71,2.59-.34.8-.76,1.53-1.26,2.18-.86,1.12-1.87,1.96-3.05,2.54-1.18.58-2.42.89-3.74.95-1.31.06-2.66-.14-4.03-.59-1.37-.45-2.67-1.15-3.91-2.1-1.01-.77-1.93-1.66-2.78-2.65-.84-.99-1.56-2.05-2.16-3.16-.6-1.12-1.06-2.27-1.39-3.47-.33-1.2-.5-2.4-.5-3.61,0-1.2.18-2.39.55-3.55.37-1.16.95-2.26,1.75-3.31.53-.69,1.12-1.27,1.79-1.75.67-.48,1.36-.82,2.07-1.02.71-.2,1.44-.24,2.17-.12.73.12,1.43.43,2.09.94.96.74,1.57,1.69,1.81,2.86.24,1.17.2,2.49-.14,3.96-.33,1.47-.92,3.06-1.74,4.77-.82,1.71-1.82,3.48-2.98,5.31l.24.18c1.21.93,2.43,1.62,3.66,2.08s2.41.7,3.53.72c1.12.02,2.15-.18,3.1-.6.95-.41,1.74-1.03,2.37-1.86.64-.84,1.09-1.86,1.35-3.06.25-1.2.26-2.62,0-4.24ZM291.2,5.05c-.43-.33-.9-.57-1.38-.72-.49-.14-.97-.2-1.44-.15-.48.04-.93.18-1.36.41-.43.23-.8.55-1.12.96-.46.61-.78,1.24-.94,1.9-.16.66-.21,1.33-.13,2,.07.68.24,1.35.51,2.03.27.68.6,1.33,1,1.97.4.64.84,1.24,1.32,1.82.49.58.98,1.11,1.5,1.59.92-1.39,1.66-2.7,2.24-3.93.57-1.22.95-2.34,1.14-3.34s.18-1.88-.03-2.65c-.21-.77-.65-1.4-1.3-1.9Z"/>
    </g>
  </g>
  <g id="Einzelst체ck_2" data-name="Einzelst체ck 2">
    <g>
      <path class="cls-8" d="M67.41,170.75c-.24-.43-.47-.78-.71-1.05-.24-.27-.5-.45-.78-.54-.28-.09-.61-.09-.98,0-.37.09-.8.27-1.3.55-.33.18-.69.4-1.08.67-.39.26-.83.57-1.32.92l-.96-1.34c.92-.71,1.78-1.36,2.58-1.95.8-.59,1.55-1.14,2.25-1.65.71-.5,1.38-.96,2.01-1.36s1.24-.77,1.83-1.09c1.62-.9,3.15-1.76,4.59-2.58,1.44-.83,2.71-1.56,3.82-2.21,1.11-.65,2.02-1.18,2.73-1.61.71-.42,1.15-.68,1.31-.77.47-.26.89-.35,1.27-.27.37.08.69.35.94.82.1.18.28.55.54,1.11.26.55.55,1.19.88,1.92.33.72.67,1.49,1.02,2.3.35.81.67,1.57.96,2.28l-1.5.77c-.19-.4-.38-.77-.56-1.12s-.35-.67-.51-.96c-.48-.86-.91-1.53-1.31-2.02-.4-.48-.82-.8-1.26-.96-.44-.16-.93-.16-1.46-.01-.53.15-1.17.42-1.9.81-1.02.55-1.92,1.04-2.69,1.46-.77.42-1.51.83-2.22,1.21l-.82.45c-.39.21-.79.44-1.19.67-.4.23-.89.51-1.45.85.45.86.95,1.83,1.51,2.89.55,1.07,1.15,2.21,1.78,3.42.63,1.22,1.3,2.5,2,3.86.7,1.35,1.42,2.75,2.16,4.19,1.36-.67,2.56-1.27,3.6-1.81,1.04-.54,2-1.05,2.87-1.53,1.06-.58,1.97-1.13,2.75-1.65.78-.52,1.49-1.05,2.14-1.59.41.36.72.72.92,1.08.16.3.21.6.14.91-.07.31-.24.62-.51.93-.27.32-.63.63-1.08.96s-.97.65-1.57.98c-1.06.58-2.29,1.19-3.69,1.81-1.4.62-2.92,1.27-4.54,1.94.31.61.68,1.34,1.11,2.19.43.85.89,1.76,1.37,2.73.48.97.96,1.96,1.46,2.98.49,1.02.96,2,1.4,2.94.45.94.84,1.8,1.19,2.6.35.79.62,1.45.82,1.97.92-.69,1.83-1.33,2.73-1.92.91-.59,1.75-1.09,2.52-1.52,1.08-.59,2.1-1.12,3.07-1.58.97-.46,1.92-.95,2.84-1.46.62-.34,1.11-.72,1.48-1.15s.61-.95.72-1.58c.11-.63.07-1.38-.1-2.24-.18-.87-.51-1.91-1.01-3.12l1.43-.69c.92,1.74,1.58,3.23,1.98,4.47.4,1.24.59,2.28.56,3.14-.03.86-.25,1.57-.66,2.12-.42.56-.97,1.03-1.67,1.41-.55.31-1.19.59-1.92.86-.72.27-1.52.55-2.38.86-.86.31-1.78.66-2.75,1.07-.97.4-1.99.9-3.05,1.48-.93.51-1.93,1.14-2.99,1.88s-2.1,1.57-3.13,2.5l-.29.12c-.41-1.11-.96-2.43-1.65-3.95-.69-1.52-1.46-3.17-2.32-4.95-.86-1.78-1.79-3.65-2.79-5.6-1-1.95-2.02-3.92-3.05-5.89-1.04-1.98-2.08-3.93-3.12-5.85-1.04-1.92-2.03-3.74-2.98-5.45Z"/>
      <path class="cls-8" d="M93.88,157.26c-.34.22-.69.35-1.05.38-.36.03-.71,0-1.04-.12-.34-.11-.65-.28-.95-.52-.29-.24-.54-.51-.75-.82-.29-.44-.47-.88-.54-1.31-.07-.43-.07-.84.02-1.23.08-.38.23-.73.44-1.02.21-.3.45-.54.73-.72.33-.22.67-.35,1.02-.4.35-.05.68-.03,1.02.06.33.09.64.24.93.46.29.21.53.48.75.8.22.34.39.72.49,1.14.1.42.14.83.11,1.24-.03.41-.14.8-.33,1.16-.19.36-.47.66-.83.9ZM99.5,163.08c.56,1.23,1.15,2.44,1.77,3.64s1.23,2.35,1.84,3.45c.61,1.1,1.21,2.13,1.78,3.08.58.96,1.11,1.82,1.61,2.57.67,1.02,1.25,1.89,1.76,2.6.51.71.96,1.29,1.35,1.75.4.46.74.8,1.04,1.03.3.23.58.38.83.44s.5.05.74-.03c.23-.08.48-.21.73-.37.47-.31.93-.71,1.38-1.21s.87-1.06,1.27-1.68l.78.58c-.17.51-.42,1.09-.76,1.74-.34.64-.73,1.28-1.16,1.91-.43.63-.88,1.21-1.34,1.72-.46.52-.9.92-1.32,1.18-.28.18-.54.32-.79.42-.25.1-.53.13-.83.07-.3-.06-.63-.21-1-.46-.37-.25-.79-.64-1.27-1.17-.48-.53-1.03-1.22-1.66-2.07-.63-.85-1.35-1.9-2.17-3.16-.48-.74-1.02-1.57-1.61-2.51-.59-.94-1.22-1.95-1.88-3.03-.67-1.08-1.36-2.23-2.08-3.45-.72-1.21-1.46-2.47-2.2-3.78-.16-.29-.23-.56-.22-.81.02-.25.09-.49.21-.71.13-.21.28-.41.47-.58.19-.17.37-.32.55-.43.66-.43,1.38-.68,2.15-.75Z"/>
      <path class="cls-8" d="M108.85,160.82c-.26-.41-.51-.73-.74-.97s-.47-.4-.69-.48c-.23-.08-.46-.1-.69-.05-.23.05-.48.16-.73.32-.36.23-.75.55-1.18.96-.43.41-.91.91-1.44,1.48l-.9-.93c.54-.69,1.08-1.35,1.59-1.96.52-.61,1-1.17,1.45-1.67.45-.5.86-.91,1.22-1.26.36-.34.67-.59.9-.74.57-.37,1.13-.48,1.67-.34.54.14,1.07.62,1.6,1.45.06.1.2.34.41.71.21.37.47.85.79,1.42.32.58.68,1.24,1.09,1.98.41.75.84,1.55,1.29,2.4.45.85.91,1.74,1.39,2.65.47.91.94,1.83,1.4,2.75l.1-.04c-.87-3.03-1.44-5.69-1.7-8-.26-2.3-.29-4.28-.1-5.94.19-1.66.57-3.01,1.15-4.05.57-1.05,1.26-1.82,2.06-2.33.55-.35,1.15-.59,1.8-.71.65-.12,1.31-.08,2,.12.69.2,1.38.58,2.08,1.15.69.57,1.37,1.36,2.01,2.37.19.3.43.71.71,1.23.28.52.6,1.1.94,1.75.34.64.7,1.33,1.07,2.06.37.73.75,1.44,1.12,2.13.37.69.73,1.35,1.08,1.97s.66,1.15.95,1.6c.49.77.92,1.38,1.3,1.82.37.44.72.76,1.05.95.33.19.65.25.96.2.31-.05.65-.2,1-.42.51-.33,1-.74,1.46-1.24.46-.5.89-1.05,1.29-1.67l.77.59c-.17.51-.44,1.09-.79,1.73-.35.64-.75,1.28-1.19,1.91-.44.63-.91,1.21-1.4,1.74-.49.53-.97.94-1.42,1.23-.53.34-1.04.46-1.53.37-.49-.09-.97-.33-1.44-.73-.47-.4-.94-.91-1.4-1.54s-.94-1.33-1.43-2.09c-.59-.93-1.17-1.9-1.73-2.93-.56-1.02-1.09-2.01-1.58-2.95-.49-.94-.93-1.79-1.33-2.56-.4-.77-.74-1.37-1.01-1.8-.74-1.16-1.5-1.87-2.28-2.14-.78-.27-1.54-.18-2.26.28-.57.37-1.02.99-1.35,1.88-.32.89-.53,1.95-.62,3.2s-.06,2.63.1,4.15c.16,1.52.43,3.1.82,4.73.39,1.64.9,3.28,1.52,4.94s1.37,3.24,2.22,4.75l-2.85,2.36-.25.14c-.52-.99-1.1-2.06-1.73-3.21-.64-1.15-1.29-2.31-1.96-3.49-.67-1.18-1.34-2.34-2.01-3.49-.67-1.15-1.3-2.22-1.89-3.22-.59-.99-1.12-1.88-1.59-2.66-.48-.78-.86-1.39-1.14-1.84Z"/>
      <path class="cls-8" d="M140.99,163.91c.05-.54.16-1.26.34-2.17.18-.91.4-1.93.67-3.08.27-1.15.57-2.38.91-3.69s.69-2.65,1.05-3.99c.37-1.35.74-2.68,1.12-4,.38-1.32.74-2.56,1.08-3.71.34-1.15.66-2.18.96-3.1s.54-1.65.74-2.2l-.15-.07c-.4.3-.85.6-1.36.9-.5.29-.99.55-1.47.78-.72.34-1.42.63-2.11.89-.68.25-1.31.48-1.89.67-.58.19-1.08.36-1.52.5-.44.14-.77.26-.99.37-.46.21-.84.47-1.15.77-.31.3-.54.67-.67,1.1-.14.43-.17.94-.11,1.53.06.59.24,1.28.53,2.08l-1.23.53c-.26-.58-.52-1.17-.77-1.76-.26-.6-.48-1.19-.65-1.77-.18-.58-.3-1.15-.36-1.71-.07-.56-.03-1.08.11-1.58.14-.5.39-.96.76-1.38.37-.42.9-.8,1.58-1.11.55-.26,1.19-.51,1.92-.76.73-.25,1.5-.51,2.31-.79s1.64-.56,2.48-.87,1.64-.63,2.41-.99c.83-.39,1.59-.82,2.28-1.3.69-.48,1.22-.99,1.58-1.53l1.23.32c0,.57-.05,1.28-.18,2.15-.13.87-.3,1.84-.51,2.92-.21,1.08-.47,2.23-.77,3.47-.3,1.24-.61,2.5-.95,3.78-.34,1.28-.69,2.57-1.05,3.86-.36,1.29-.72,2.53-1.08,3.72s-.7,2.31-1.03,3.35c-.33,1.04-.62,1.96-.89,2.74l.18.05c.16-.18.36-.37.58-.56.23-.2.46-.39.72-.57.25-.18.51-.35.76-.5.26-.15.5-.28.72-.38.67-.31,1.36-.57,2.07-.78s1.4-.4,2.08-.57c.68-.17,1.32-.34,1.94-.51.62-.17,1.19-.37,1.7-.61.48-.22.89-.49,1.24-.81.35-.32.61-.71.78-1.19s.23-1.03.18-1.69c-.05-.65-.23-1.43-.54-2.33l1.22-.46c.69,1.54,1.16,2.86,1.39,3.97.23,1.11.28,2.05.13,2.82-.14.77-.44,1.4-.9,1.9-.46.49-1.02.89-1.69,1.21-.7.33-1.49.59-2.36.78-.87.19-1.78.38-2.72.56-.94.18-1.89.39-2.84.62-.95.23-1.85.54-2.7.94-.8.37-1.51.84-2.15,1.39-.64.56-1.17,1.27-1.6,2.12l-1.35-.26Z"/>
      <path class="cls-8" d="M177.11,143.83c.08.01.18.04.3.07.12.03.24.07.35.12.11.05.21.1.3.17.09.07.15.14.17.22.01.04,0,.1-.01.15-.38,1.06-.84,2.02-1.38,2.87-.54.86-1.14,1.61-1.8,2.27-.66.66-1.36,1.21-2.11,1.65-.75.44-1.52.78-2.31,1-1.35.39-2.67.47-3.96.24-1.29-.23-2.47-.7-3.56-1.43-1.09-.72-2.04-1.67-2.87-2.82-.83-1.16-1.45-2.47-1.88-3.95-.35-1.21-.56-2.45-.64-3.73-.08-1.28-.03-2.54.16-3.78.19-1.24.5-2.43.96-3.58.45-1.15,1.03-2.2,1.75-3.16s1.57-1.79,2.55-2.5c.98-.71,2.11-1.25,3.37-1.61.83-.24,1.66-.36,2.48-.35s1.57.14,2.26.4c.69.26,1.29.65,1.81,1.17.52.52.89,1.18,1.11,1.97.33,1.15.25,2.26-.26,3.33-.5,1.07-1.33,2.1-2.47,3.07-1.15.98-2.56,1.9-4.24,2.78s-3.53,1.71-5.55,2.49l.08.29c.42,1.44.98,2.71,1.69,3.79.71,1.09,1.51,1.96,2.39,2.63.89.67,1.83,1.11,2.84,1.33s2.01.19,3.01-.1c1.01-.29,1.98-.84,2.9-1.65.92-.81,1.76-1.93,2.53-3.37ZM170.03,131.18c-.15-.52-.38-.98-.68-1.38s-.66-.72-1.06-.96-.85-.4-1.33-.47c-.48-.07-.97-.03-1.47.11-.73.21-1.36.53-1.88.96-.52.43-.96.94-1.3,1.52-.35.58-.61,1.22-.8,1.91-.19.7-.32,1.41-.38,2.15-.06.74-.07,1.48-.03,2.22.04.74.13,1.46.25,2.14,1.57-.57,2.94-1.18,4.13-1.82,1.19-.64,2.16-1.3,2.9-1.99.75-.68,1.27-1.4,1.55-2.13s.32-1.49.1-2.27Z"/>
      <path class="cls-8" d="M180.23,100.65c.12,2,.25,4.05.4,6.15.14,2.1.3,4.22.48,6.36.18,2.14.37,4.29.58,6.44.21,2.15.43,4.27.68,6.35.24,2.08.51,4.12.79,6.12.29,2,.59,3.91.92,5.73.21,1.14.4,2.12.57,2.93.18.81.35,1.5.51,2.05.17.55.33.99.51,1.32.17.33.35.57.55.72.19.16.41.25.64.27.23.02.5,0,.8-.04.55-.1,1.14-.29,1.75-.57.61-.28,1.22-.63,1.82-1.05l.49.84c-.36.41-.82.84-1.38,1.3-.57.46-1.17.89-1.81,1.31-.64.41-1.28.77-1.91,1.07-.63.3-1.19.49-1.67.58-.62.11-1.14.04-1.56-.21-.42-.25-.79-.72-1.11-1.4-.32-.68-.61-1.59-.86-2.73s-.54-2.53-.83-4.18c-.11-.6-.24-1.46-.41-2.58-.17-1.12-.35-2.42-.55-3.91-.2-1.49-.42-3.11-.65-4.88-.23-1.77-.47-3.6-.72-5.49s-.49-3.8-.72-5.73c-.24-1.93-.47-3.79-.68-5.59-.22-1.8-.42-3.5-.61-5.1-.19-1.6-.35-3.01-.49-4.23-.04-.28,0-.53.11-.76.11-.23.28-.42.49-.59.21-.16.46-.3.75-.41.28-.11.58-.19.88-.25.69-.12,1.45-.07,2.28.16Z"/>
      <path class="cls-8" d="M195.66,140.3c.18.88.5,1.61.97,2.21.46.59,1,1.06,1.62,1.41.62.34,1.28.57,2,.69.72.12,1.42.14,2.1.06.64-.07,1.25-.23,1.82-.47.57-.24,1.07-.55,1.49-.93.42-.38.73-.82.95-1.33s.3-1.06.23-1.65c-.07-.62-.28-1.14-.62-1.57-.34-.43-.78-.81-1.32-1.14-.53-.33-1.14-.62-1.82-.87-.68-.25-1.39-.51-2.13-.77-.65-.22-1.3-.44-1.96-.67-.66-.23-1.3-.48-1.92-.76-.62-.28-1.21-.6-1.76-.95-.55-.35-1.05-.75-1.48-1.2-.44-.45-.79-.97-1.08-1.56-.29-.59-.47-1.25-.56-2-.09-.8-.04-1.56.17-2.27.2-.71.51-1.36.94-1.96.42-.6.93-1.13,1.51-1.61.59-.48,1.23-.9,1.92-1.25s1.41-.64,2.16-.87c.75-.22,1.48-.37,2.2-.46.93-.11,1.83-.11,2.68,0,.85.11,1.62.32,2.28.64.67.32,1.22.74,1.65,1.25s.69,1.12.77,1.82c.03.27.02.56-.04.89-.06.32-.18.64-.37.94-.19.3-.45.56-.79.79-.34.23-.77.38-1.29.45-.49.06-1.01.04-1.56-.05l-.07-.17c.12-.39.2-.75.23-1.07.03-.32.03-.62,0-.88-.07-.53-.26-.97-.56-1.31-.3-.34-.67-.6-1.09-.79-.42-.19-.88-.31-1.38-.36s-.98-.05-1.44,0c-.83.09-1.55.29-2.18.58-.63.3-1.14.65-1.55,1.07-.41.42-.7.87-.89,1.37-.19.49-.25.99-.19,1.49.07.64.31,1.2.7,1.66.4.47.9.88,1.5,1.24.61.36,1.3.69,2.07.98.77.29,1.57.58,2.41.86.93.32,1.86.65,2.79,1,.92.35,1.76.77,2.52,1.26.75.49,1.38,1.08,1.89,1.78.51.69.82,1.54.94,2.54.14,1.2,0,2.29-.43,3.29-.42.99-1.04,1.86-1.85,2.6-.81.74-1.77,1.34-2.88,1.81-1.11.46-2.28.76-3.51.9-.62.07-1.26.1-1.93.08-.67-.02-1.32-.08-1.96-.2s-1.25-.28-1.83-.49c-.58-.21-1.1-.47-1.56-.78-.45-.31-.83-.67-1.11-1.08-.29-.41-.46-.88-.52-1.4-.05-.45,0-.85.16-1.19.16-.34.38-.62.67-.85.29-.23.63-.42,1.01-.57.38-.14.77-.24,1.18-.3l.15.11Z"/>
      <path class="cls-8" d="M218.7,105.6c-.11,2.28-.13,4.61-.05,7.01.07,2.39.19,4.75.35,7.06.55-.07,1.08-.14,1.59-.22.52-.08,1-.15,1.44-.21.45-.06.85-.13,1.22-.19s.67-.11.91-.16c1.05-.18,1.9-.39,2.55-.63.09.19.17.36.23.51s.11.3.13.44c.09.51-.07.87-.46,1.1-.4.22-.99.4-1.79.54-.76.13-1.62.23-2.58.3s-2,.16-3.14.27c.09,1.26.19,2.48.3,3.67.11,1.19.24,2.31.36,3.35.13,1.05.25,2.02.38,2.91.13.89.25,1.67.36,2.33.21,1.24.47,2.33.76,3.28.29.95.66,1.73,1.1,2.35.44.62.97,1.06,1.6,1.32.63.26,1.38.32,2.24.17.62-.11,1.3-.34,2.03-.69.73-.35,1.54-.86,2.44-1.51.37.26.61.61.73,1.05-.63.6-1.28,1.15-1.94,1.66-.66.51-1.32.97-1.98,1.37-.66.4-1.3.73-1.93.99-.63.26-1.24.45-1.83.55-.77.13-1.51.11-2.2-.06-.69-.17-1.33-.58-1.92-1.22-.59-.64-1.12-1.55-1.59-2.73-.47-1.18-.86-2.71-1.19-4.58-.18-1.05-.35-2.14-.51-3.26s-.3-2.26-.44-3.41c-.14-1.15-.26-2.31-.36-3.47-.1-1.16-.19-2.3-.27-3.43-.91.17-1.75.35-2.52.55-.77.2-1.42.41-1.95.65-.05-.06-.08-.14-.09-.23-.04-.24.04-.49.24-.75.2-.25.5-.5.89-.75.39-.25.87-.48,1.44-.69.57-.22,1.2-.41,1.9-.58-.15-2.46-.26-4.79-.33-6.99-.07-2.2-.1-4.17-.09-5.91,0-.31.07-.58.19-.8s.28-.41.46-.56c.19-.15.4-.27.63-.36.23-.09.47-.15.7-.19.38-.06.73-.08,1.05-.05.32.03.63.09.92.2Z"/>
      <path class="cls-8" d="M234.33,107.47c-.38.11-.75.12-1.1.04s-.67-.22-.95-.42c-.28-.2-.52-.46-.73-.77-.21-.31-.36-.64-.46-1-.14-.51-.18-.98-.11-1.4s.2-.8.39-1.14c.19-.33.43-.61.72-.83.29-.22.59-.37.9-.46.37-.1.73-.12,1.08-.07.34.06.65.18.93.36.28.19.52.42.72.71.21.29.36.62.46.98.1.38.15.79.12,1.21-.03.42-.12.82-.27,1.2-.16.38-.38.71-.67.99s-.63.48-1.04.59ZM250.18,110.89c.19,1.1.41,2.27.66,3.49s.5,2.45.76,3.67c.26,1.22.53,2.41.82,3.58.28,1.16.56,2.23.82,3.2.5,1.84,1.03,3.32,1.56,4.43.54,1.11,1.07,1.96,1.59,2.53.52.58,1.04.94,1.54,1.07.5.13.98.14,1.42.02.26-.07.51-.18.74-.31.24-.14.45-.29.65-.44.2-.16.38-.32.53-.48s.29-.31.4-.44l.77.63c-.24.43-.52.85-.86,1.27-.34.41-.71.79-1.11,1.14-.4.35-.84.65-1.32.92s-.97.47-1.49.61c-.66.18-1.33.22-2.01.13-.69-.09-1.36-.38-2-.86-.65-.48-1.26-1.2-1.84-2.14-.58-.94-1.07-2.17-1.49-3.68-.13-.49-.26-.98-.37-1.48-.11-.5-.22-1.03-.32-1.6-.1-.57-.2-1.18-.29-1.83-.09-.66-.2-1.38-.31-2.18l-.2.02c0,3.05-.17,5.66-.54,7.82-.37,2.17-.87,3.97-1.49,5.4-.62,1.43-1.34,2.53-2.15,3.3-.81.76-1.65,1.26-2.51,1.5-1.02.28-1.94.24-2.76-.13-.82-.36-1.56-.96-2.22-1.8-.66-.83-1.24-1.85-1.75-3.06-.51-1.2-.95-2.51-1.34-3.91-.33-1.19-.62-2.42-.89-3.68-.27-1.27-.51-2.52-.72-3.76-.21-1.24-.39-2.42-.54-3.55-.15-1.13-.26-2.15-.34-3.05-.03-.33,0-.61.07-.84.08-.23.19-.42.33-.56s.31-.27.5-.36c.19-.09.39-.16.6-.22.38-.11.76-.16,1.11-.16.36,0,.72.04,1.1.12.15,1.33.31,2.66.48,3.97.17,1.31.36,2.58.55,3.81.2,1.23.41,2.41.64,3.53.23,1.13.48,2.17.74,3.13.29,1.04.6,1.97.94,2.79.34.82.72,1.51,1.14,2.05.42.54.87.93,1.35,1.15.48.23,1,.26,1.57.11.96-.26,1.8-1.05,2.52-2.36.72-1.31,1.27-3.08,1.64-5.33.37-2.24.54-4.69.5-7.35-.04-2.66-.36-5.45-.96-8.37l3.47-1.43.28-.06ZM244.52,104.67c-.37.1-.74.11-1.09.03-.35-.08-.66-.22-.95-.42-.28-.2-.52-.46-.73-.77-.21-.31-.36-.64-.46-1-.14-.51-.18-.97-.12-1.4.06-.42.19-.8.38-1.13.19-.33.43-.61.72-.83.29-.22.59-.37.9-.46.37-.1.73-.12,1.08-.07.34.06.66.18.94.36.28.18.53.42.73.71.21.29.36.62.46.98.11.38.15.79.12,1.21-.02.42-.12.82-.27,1.2-.16.38-.38.71-.67.99-.29.29-.64.49-1.06.6Z"/>
      <path class="cls-8" d="M273.25,110.48c.09-.72.03-1.39-.19-2.02-.15-.43-.37-.81-.65-1.14-.28-.33-.63-.59-1.03-.78-.4-.19-.86-.29-1.36-.3-.51-.01-1.06.08-1.66.29-.86.3-1.58.73-2.16,1.27-.58.54-1.04,1.18-1.38,1.89-.34.71-.57,1.49-.69,2.31-.13.83-.17,1.68-.12,2.56.04.88.16,1.76.34,2.63.18.87.42,1.71.7,2.5.5,1.43,1.14,2.66,1.92,3.69.78,1.04,1.63,1.85,2.55,2.46.92.6,1.88.98,2.88,1.14,1,.16,1.97.07,2.92-.27,1-.35,1.93-.98,2.78-1.87.85-.89,1.55-2.09,2.11-3.61.08,0,.18.03.31.05.12.02.25.06.36.11.12.05.22.1.31.15s.15.11.18.18c.01.04.02.07.01.09v.08c-.47,2.11-1.3,3.87-2.5,5.26-1.2,1.39-2.69,2.4-4.49,3.03-.97.34-1.92.52-2.83.54-.91.02-1.79-.1-2.62-.34-.83-.25-1.62-.61-2.35-1.09-.74-.48-1.41-1.04-2.01-1.7-.61-.65-1.15-1.37-1.62-2.15-.47-.79-.85-1.61-1.16-2.47-.41-1.16-.69-2.37-.85-3.62-.16-1.25-.18-2.51-.07-3.76.11-1.25.35-2.47.73-3.65.37-1.18.88-2.27,1.53-3.28.65-1,1.44-1.89,2.37-2.66.93-.77,2.01-1.37,3.22-1.8.91-.32,1.79-.51,2.65-.56.86-.06,1.65.02,2.36.22.71.2,1.33.53,1.86.99.53.46.91,1.03,1.16,1.73.16.45.23.88.22,1.28-.02.4-.1.76-.26,1.1-.16.34-.39.63-.68.87-.29.25-.64.44-1.04.58-.24.09-.5.15-.78.19-.28.04-.56.05-.86.03l-.13-.16Z"/>
      <path class="cls-8" d="M292.18,109.61c1.04-1.06,1.93-2.12,2.69-3.19.76-1.06,1.35-2.09,1.78-3.08.43-.99.68-1.92.74-2.8.06-.88-.09-1.66-.45-2.36-.15-.29-.34-.53-.58-.72-.24-.19-.49-.32-.76-.4-.27-.08-.55-.1-.85-.07-.29.03-.58.12-.86.27-.66.34-1.23.89-1.72,1.66-.49.77-.89,1.72-1.18,2.85-.29,1.13-.48,2.42-.56,3.87-.08,1.45-.04,3.03.13,4.74.17,1.71.47,3.52.9,5.45.43,1.93,1.01,3.93,1.73,5.99l-2.95,2.04-.26.11c-.57-1.26-1.2-2.65-1.89-4.18-.69-1.52-1.42-3.14-2.19-4.85-.77-1.71-1.58-3.5-2.41-5.35-.83-1.86-1.69-3.75-2.56-5.67-.87-1.93-1.74-3.87-2.62-5.83-.88-1.96-1.75-3.89-2.61-5.8-.86-1.91-1.71-3.78-2.53-5.61-.83-1.83-1.62-3.58-2.37-5.24-.12-.26-.16-.51-.12-.76.04-.25.14-.49.3-.71.16-.22.36-.42.6-.62.24-.19.51-.36.8-.51.62-.32,1.37-.5,2.23-.52.86,2.26,1.66,4.33,2.39,6.2.73,1.88,1.42,3.62,2.05,5.22.64,1.6,1.24,3.1,1.8,4.49.56,1.39,1.11,2.72,1.63,3.98.53,1.26,1.05,2.5,1.56,3.71.51,1.21,1.03,2.43,1.57,3.67.54,1.24,1.09,2.52,1.66,3.85.57,1.33,1.19,2.75,1.84,4.27l.1-.03c-.26-1.43-.46-2.88-.57-4.36-.11-1.47-.14-2.91-.09-4.31.05-1.41.19-2.75.43-4.04.23-1.29.56-2.46.99-3.53.43-1.06.95-2,1.58-2.8.63-.8,1.36-1.42,2.21-1.86.53-.27,1.06-.44,1.6-.5.54-.06,1.05-.01,1.54.13.49.15.94.4,1.36.75s.76.81,1.05,1.36c.45.86.69,1.8.74,2.8.04,1-.08,2.06-.38,3.17-.3,1.1-.76,2.24-1.38,3.41-.62,1.17-1.36,2.34-2.24,3.52,1.36.92,2.55,1.69,3.58,2.32,1.03.62,1.93,1.13,2.7,1.51.77.38,1.44.67,1.99.84.55.18,1.03.28,1.43.31s.76,0,1.06-.08c.3-.08.59-.19.86-.33.54-.28,1.06-.65,1.56-1.12s.97-.99,1.43-1.57l.72.66c-.22.5-.53,1.05-.95,1.66-.41.61-.87,1.21-1.38,1.8-.51.59-1.03,1.13-1.58,1.62-.55.49-1.06.85-1.54,1.1-.56.29-1.23.37-2,.25-.77-.12-1.7-.45-2.78-.99s-2.36-1.26-3.81-2.19c-1.46-.93-3.16-2.06-5.11-3.38l-.03-.22Z"/>
    </g>
  </g>
  <g id="Pfote">
    <g>
      <path class="cls-2" d="M313.6,52.88c-.04-.27-.2-.12-.31.17-.06.16-.43.81-.34,1.49.06.33.83.5.94-.05.03-.64-.19-.74-.29-1.61Z"/>
      <path class="cls-2" d="M312.91,63.74c1.59-.22,2.34-1.5,2.89-2.51.76-1.4.28-2.95-.68-4.47-.71-1.13-1.41-2.33-2.87-1.35-.4.27-.97,1.02-1.3,1.48-1.17,1.6-1.06,2.55-.3,4.57.56,1.48,1.21,2.39,2.26,2.27Z"/>
      <path class="cls-2" d="M319.42,53.81c.27.52.69.89.54,1.88-.06.38-.7.4-.89.16-.24-.34.12-1.49.35-2.03Z"/>
      <path class="cls-2" d="M307.91,58.97c.16,0,.07.46.09.69.26.4.46,1.09.09,1.4-.1.09-.24.08-.34.05-.96-.43-.13-2.06.16-2.14Z"/>
      <path class="cls-2" d="M319.02,56.21c-2.07-.11-2.95,4.81-1.97,6.98.01.03.07.16.08.18.03.06.06.12.13.22.73,1.02,2.22,1.11,3.26.5,1.63-.96,2.26-3.44,1.5-4.83-.23-.42-.72-1.07-1.11-1.59-.59-.78-1.06-1.41-1.89-1.45Z"/>
      <path class="cls-2" d="M307.42,61.41c-.34.07-.76.31-1.08.68-.34.4-.72,1-1,1.58-.75,1.52.74,4.27,2.49,5.03.7.31,1.8.06,2.32-.5.22-.23.4-.54.56-.9.22-.51.43-2.51.31-3.29-.11-.73-.41-1.31-.86-1.67-.69-.54-1.83-1.11-2.74-.93Z"/>
      <path class="cls-2" d="M324.04,62.3c-.04-.15-.34.12-.51.32-.43.66-.75.67-.53,1.38.1.32.49.58.83.16.16-.21.32-1.49.2-1.87Z"/>
      <path class="cls-2" d="M322.3,64.04c-.97-.1-1.62.74-2.33,1.68-.69.92-1.96,2.75-1.17,4.26.52.99,2.57,1.35,3.62.62.46-.32.5-.46.82-.82,1-1.13.86-2.1.42-3.53-.28-.94-.41-2.04-1.36-2.21Z"/>
      <path class="cls-2" d="M308.5,71.47c.2,2.63,3.08,3.96,5.45,4.28.96.13,1.97.17,2.85.16.81,0,2.16.03,2.93-.34.73-.35,1.25-1.29,1.12-2.06-.2-1.16-1.67-2.16-2.47-3.13-.43-.53-.71-1.34-.79-1.97-.33-2.52-2.11-3.33-4.44-1.87-.9.56-1.5,1.32-2.38,2.12-.87.8-2.24,1.57-2.27,2.8Z"/>
    </g>
  </g>
  <g id="Ebene_11_Kopie" data-name="Ebene 11 Kopie">
    <g>
      <path class="cls-7" d="M15.39,85c.18.01.34.01.47-.01.13-.02.24-.07.33-.16.09-.08.16-.2.21-.36.05-.15.08-.36.1-.61.01-.16.02-.35.02-.55s0-.44,0-.7l.61-.04c.03.5.05.97.06,1.4.02.43.03.83.03,1.21s0,.73,0,1.05c0,.33-.02.63-.05.92-.06.8-.12,1.56-.17,2.28-.05.72-.09,1.36-.12,1.92-.03.56-.06,1.02-.08,1.37-.02.36-.03.58-.04.66-.02.23-.08.41-.18.53-.1.12-.25.17-.45.15-.08,0-.23-.03-.45-.06s-.48-.08-.77-.13c-.29-.05-.6-.11-.92-.17-.32-.06-.62-.12-.9-.19l.08-.73c.16.02.32.04.46.06.14.02.28.03.4.04.36.03.66.03.9,0,.23-.03.42-.11.56-.24.14-.12.25-.3.31-.53s.12-.53.15-.89c.04-.5.08-.94.12-1.32s.06-.75.09-1.1l.03-.4c.02-.19.03-.39.04-.59.01-.2.03-.44.04-.73-.36-.04-.76-.08-1.21-.13-.44-.05-.92-.1-1.43-.16-.51-.06-1.04-.12-1.6-.18s-1.14-.13-1.74-.2c-.08.65-.14,1.23-.19,1.74-.05.51-.09.98-.13,1.41-.04.52-.06.99-.07,1.39s.01.79.04,1.16c-.2.07-.37.09-.52.08-.13-.01-.23-.06-.31-.16-.08-.1-.14-.23-.18-.41s-.06-.38-.07-.62c0-.24,0-.51.03-.8.04-.52.11-1.11.22-1.77s.22-1.36.36-2.12c-.25-.03-.55-.07-.91-.11s-.73-.09-1.13-.14c-.4-.05-.81-.11-1.22-.17-.42-.06-.82-.12-1.2-.18-.38-.06-.73-.12-1.05-.18s-.58-.11-.78-.17c.02.5.03.98.02,1.45s-.03.9-.06,1.28c-.04.53-.09,1.03-.16,1.5-.06.46-.11.92-.15,1.38-.02.3,0,.58.04.81s.17.45.34.64c.17.19.41.35.71.49.3.14.69.26,1.17.37l-.09.68c-.73-.07-1.33-.18-1.79-.33-.46-.14-.83-.32-1.09-.54-.26-.21-.43-.46-.51-.74s-.11-.6-.09-.94c.02-.27.07-.57.14-.9.07-.33.15-.68.23-1.07.09-.39.17-.81.25-1.26.08-.45.14-.94.18-1.46.04-.46.05-.97.05-1.53,0-.56-.04-1.14-.11-1.73l.02-.14c.43.11.95.22,1.56.33s1.28.21,2.01.32c.73.1,1.5.2,2.31.3s1.63.19,2.45.27c.83.09,1.64.17,2.45.24.81.07,1.58.14,2.3.2Z"/>
      <path class="cls-7" d="M10.88,99.05c-.5-.09-.99-.17-1.49-.23-.5-.07-.98-.12-1.45-.16-.47-.04-.91-.07-1.32-.1-.42-.02-.79-.03-1.13-.04-.45,0-.84,0-1.17.01-.32.01-.6.04-.82.07-.22.03-.4.08-.53.13s-.24.12-.31.2c-.07.08-.12.17-.14.27-.02.1-.03.22-.04.36,0,.24.03.51.09.79.06.28.15.57.26.86l-.34.14c-.12-.18-.25-.42-.38-.7-.13-.28-.25-.57-.35-.88-.11-.31-.19-.61-.26-.9s-.1-.55-.09-.76c0-.14.01-.27.03-.39s.07-.22.15-.32c.08-.09.2-.18.35-.25s.36-.13.62-.18.59-.08.98-.1c.39-.02.87-.03,1.43-.03.33,0,.7.01,1.11.02s.85.03,1.33.05c.47.02.97.04,1.5.07.53.03,1.07.07,1.62.11.12.01.22.05.3.12.08.07.13.15.17.25.04.1.07.2.08.31s.02.21.02.3c0,.34-.07.66-.21.96ZM13.84,98.41c0-.18.03-.34.1-.47s.15-.25.25-.35c.1-.09.22-.17.35-.22.13-.05.27-.07.41-.07.2,0,.37.04.52.12s.27.18.38.3c.1.12.18.26.23.41.05.15.07.29.07.44,0,.17-.03.33-.09.47s-.13.26-.23.35c-.1.1-.21.17-.33.23-.12.05-.26.08-.4.08-.15,0-.3-.03-.45-.1-.15-.06-.29-.15-.41-.26-.12-.11-.22-.24-.29-.4-.07-.16-.11-.33-.11-.52Z"/>
      <path class="cls-7" d="M9.2,103.71c.18-.01.33-.04.45-.07s.21-.09.28-.16c.07-.07.11-.15.14-.25.02-.1.03-.21.02-.35-.01-.18-.05-.4-.11-.65-.06-.25-.14-.54-.23-.86l.46-.14c.13.36.25.7.36,1.02.11.33.21.63.29.9.08.28.15.52.2.73.05.21.08.38.08.5.02.3-.04.53-.18.7-.14.17-.39.27-.76.3-.04,0-.15,0-.3,0-.16,0-.36,0-.61,0s-.53,0-.84-.01c-.32,0-.65-.01-1.01-.02s-.73-.02-1.11-.04c-.38-.02-.76-.04-1.15-.06v.05c1.14.32,2.11.67,2.91,1.07s1.45.8,1.96,1.23.89.86,1.13,1.3c.24.44.38.86.4,1.28.02.28-.01.56-.09.83-.07.27-.21.51-.39.73-.19.22-.43.4-.74.54s-.68.23-1.13.26c-.13,0-.31,0-.53,0s-.47,0-.74-.02c-.27,0-.56-.02-.86-.03-.3-.01-.6-.02-.9-.03-.29,0-.57-.01-.84-.01-.26,0-.49,0-.69.02-.34.02-.61.06-.83.1-.21.05-.38.11-.5.2-.12.08-.2.19-.23.32-.04.13-.05.29-.04.47.02.26.07.54.15.82.08.28.19.56.32.85l-.33.17c-.14-.18-.28-.4-.43-.67-.15-.27-.29-.56-.41-.86-.13-.3-.23-.6-.32-.9s-.14-.57-.15-.8c-.02-.27.03-.5.15-.66.12-.16.28-.29.49-.39.21-.09.46-.16.75-.2.29-.04.6-.07.94-.09.41-.03.83-.04,1.27-.03.43,0,.85.02,1.24.03.39.02.75.03,1.07.04.32.01.58.01.77,0,.51-.03.88-.17,1.1-.41.23-.24.33-.54.31-.92-.02-.3-.15-.6-.38-.91s-.55-.62-.94-.92c-.39-.3-.85-.58-1.38-.85-.53-.27-1.09-.5-1.69-.7-.6-.2-1.23-.36-1.89-.48-.65-.12-1.3-.18-1.95-.17l-.27-1.58v-.12c.41.01.87.02,1.36.03s.99,0,1.49,0c.5,0,1,0,1.5-.01.49,0,.96-.02,1.39-.03.43-.01.81-.02,1.15-.03s.61-.03.8-.04Z"/>
      <path class="cls-7" d="M2.69,116.37c.19.09.44.23.75.43.31.19.66.42,1.04.68.39.26.8.55,1.24.86s.89.63,1.34.96c.45.33.89.66,1.33.99s.85.64,1.23.94c.38.29.72.56,1.03.8.3.24.54.44.72.6l.04-.05c-.07-.21-.13-.43-.19-.68-.06-.25-.1-.48-.14-.71-.05-.34-.09-.67-.11-.99s-.04-.61-.06-.87c-.01-.26-.02-.5-.03-.69,0-.2-.02-.35-.04-.46-.03-.22-.09-.41-.17-.58-.08-.17-.19-.31-.33-.42s-.32-.2-.54-.25c-.22-.05-.49-.07-.8-.05l-.07-.58c.23-.03.47-.06.71-.09.24-.03.47-.04.7-.04s.44.03.65.08c.21.05.39.13.56.25.17.12.31.29.42.5.12.21.2.48.25.8.04.26.07.56.09.89.02.34.04.69.06,1.06.02.37.04.75.07,1.14.03.39.07.76.12,1.13.06.39.14.76.25,1.11.11.35.24.63.4.86l-.23.47c-.2-.07-.46-.19-.76-.36s-.63-.36-1-.6c-.37-.23-.76-.49-1.18-.77s-.84-.58-1.27-.89c-.43-.31-.86-.62-1.29-.94-.43-.32-.84-.63-1.24-.94-.39-.31-.76-.59-1.11-.87-.34-.27-.65-.52-.9-.73l-.04.07c.05.09.1.19.15.31.05.12.09.24.14.37.04.13.08.26.11.38.03.13.05.24.07.35.05.32.07.64.08.96s0,.63,0,.93c0,.3,0,.59,0,.87,0,.28.02.54.05.78.03.23.09.43.17.62s.2.35.35.48c.15.13.35.23.59.3.24.07.54.09.89.08l.04.57c-.62.08-1.14.1-1.56.05-.42-.05-.76-.16-1.03-.32s-.46-.37-.6-.62c-.13-.25-.22-.54-.27-.86-.05-.33-.07-.69-.05-1.08.02-.39.04-.79.06-1.2.03-.41.04-.83.05-1.26s-.02-.84-.08-1.24c-.06-.38-.15-.74-.29-1.07-.14-.34-.34-.65-.61-.94l.23-.52Z"/>
      <path class="cls-7" d="M14.08,128.85c-.5.02-1.01.05-1.51.09s-.98.1-1.45.15c-.46.06-.9.12-1.31.19s-.78.14-1.11.21c-.44.09-.82.18-1.14.26-.31.08-.58.16-.79.25s-.37.16-.49.24c-.12.08-.21.17-.26.26-.05.09-.08.19-.08.3s.01.22.04.35c.05.24.14.49.26.75.12.26.27.53.44.79l-.3.21c-.16-.15-.34-.35-.52-.6-.19-.25-.36-.51-.53-.78s-.32-.55-.45-.82c-.13-.27-.21-.51-.26-.72-.03-.14-.05-.27-.05-.39,0-.12.02-.23.08-.34.06-.11.15-.21.29-.32.13-.1.32-.21.57-.31.25-.1.56-.21.94-.31.38-.11.84-.22,1.39-.33.32-.07.68-.14,1.09-.22.4-.08.84-.16,1.3-.24s.96-.17,1.48-.25,1.05-.16,1.61-.24c.12-.01.23,0,.31.05.09.05.16.12.22.2.06.09.11.18.15.28.04.1.07.2.09.29.07.33.07.66,0,.98ZM16.83,127.58c-.04-.17-.04-.34,0-.48.03-.15.09-.28.17-.4.08-.12.18-.21.3-.29.12-.08.25-.13.38-.16.19-.04.37-.04.53,0,.16.04.31.11.43.21.13.1.23.21.31.35s.13.27.16.41c.04.17.04.33.02.47-.02.14-.07.28-.15.39-.07.12-.16.21-.28.29-.11.08-.24.13-.38.16-.15.03-.3.03-.46,0-.16-.03-.31-.08-.45-.17-.14-.08-.27-.19-.37-.33-.1-.14-.18-.3-.22-.48Z"/>
      <path class="cls-7" d="M15.93,140.09c-.24.34-.49.6-.78.78-.28.19-.58.32-.9.41-.33.09-.67.13-1.02.12-.35-.02-.69-.08-1.03-.19s-.66-.27-.98-.48c-.31-.21-.61-.45-.87-.73s-.5-.6-.71-.96-.37-.74-.48-1.16c-.03-.11-.06-.22-.08-.32-.02-.11-.04-.22-.06-.34-.08-.16-.17-.31-.27-.43-.1-.12-.2-.23-.31-.32-.11-.09-.22-.15-.33-.18-.11-.03-.21-.04-.3-.01-.18.05-.32.18-.4.39s-.13.47-.15.78,0,.67.02,1.06c.03.4.07.81.11,1.24.04.39.07.77.1,1.15.03.38.04.74.04,1.09s-.02.68-.07.99c-.05.31-.12.59-.23.84-.11.25-.26.46-.45.63-.19.18-.43.3-.72.38-.36.1-.74.13-1.12.07-.38-.06-.76-.19-1.13-.38-.37-.2-.74-.45-1.09-.77-.35-.32-.68-.69-.99-1.1-.31-.42-.58-.87-.82-1.38s-.44-1.03-.6-1.59c-.09-.32-.17-.67-.23-1.04-.06-.37-.1-.74-.11-1.11-.01-.37,0-.74.05-1.09.05-.36.13-.68.26-.98s.29-.55.5-.77c.21-.21.48-.37.8-.46.27-.07.54-.1.82-.06.28.03.55.11.81.22.26.11.52.26.77.44.25.18.48.38.7.59s.42.44.6.68c.18.24.34.47.47.7h.04c.02-.2.04-.39.08-.59.04-.2.09-.38.17-.56s.18-.32.3-.45.28-.22.47-.27c.21-.06.42-.06.62.01s.39.17.58.31c.18.14.35.3.51.48s.3.36.42.54c.02-.41.09-.8.2-1.15.11-.35.27-.67.46-.94.19-.27.42-.51.69-.7.26-.19.56-.33.88-.42.55-.16,1.09-.17,1.63-.06.54.12,1.04.34,1.5.67s.86.74,1.22,1.25c.35.5.61,1.07.79,1.68.07.24.11.46.14.66.03.2.04.4.04.58,0,.18,0,.35-.01.5s-.03.3-.04.44c-.03.21-.05.41-.06.61s.02.41.08.65c.06.2.14.38.24.54s.23.3.37.41c.14.11.3.18.47.22.17.04.35.03.54-.02.03,0,.06-.02.08-.03.03-.01.05-.02.08-.04l.08.08c-.04.38-.13.67-.29.9-.15.22-.33.36-.53.42-.16.05-.31.05-.46,0-.14-.04-.28-.11-.41-.22-.13-.11-.24-.25-.34-.42-.1-.17-.18-.37-.24-.6-.1-.34-.14-.73-.14-1.16l-.04-.02ZM5.77,137.73c-.18-.33-.39-.62-.63-.89-.24-.27-.5-.49-.78-.67s-.58-.3-.9-.36c-.32-.06-.64-.05-.97.05-.4.11-.72.32-.95.61-.23.29-.4.63-.5,1.01-.1.39-.14.8-.11,1.23.02.43.09.85.2,1.24.15.54.37,1.04.65,1.49.28.45.6.83.95,1.13.35.3.73.51,1.13.63s.8.13,1.21.01c.23-.06.41-.17.54-.33s.23-.34.3-.56c.07-.22.1-.48.11-.76s0-.59,0-.92c-.02-.44-.06-.91-.11-1.39-.05-.49-.09-.99-.13-1.51ZM10,138.18c.07.26.18.49.32.68.14.19.29.35.47.48.18.13.37.23.58.3.21.07.42.11.63.14s.42.02.63,0c.21-.02.41-.06.59-.11.23-.06.46-.16.68-.27s.43-.25.63-.4c.2-.16.37-.33.52-.53s.27-.41.36-.65c.09-.23.14-.48.16-.75.01-.27-.02-.55-.11-.85-.08-.28-.19-.52-.33-.72-.14-.2-.3-.37-.48-.51-.18-.13-.37-.24-.57-.31-.2-.07-.41-.12-.62-.14-.21-.02-.42-.02-.63,0s-.4.05-.58.11c-.23.06-.46.16-.69.27-.23.12-.44.26-.63.42-.19.16-.37.34-.52.55-.16.21-.28.43-.37.67s-.14.5-.16.77c-.01.27.02.56.11.86Z"/>
      <path class="cls-7" d="M17.83,149.79c.32-.12.58-.29.77-.5s.32-.45.4-.7.1-.53.08-.81-.08-.55-.17-.8c-.13-.34-.26-.61-.41-.83-.15-.21-.3-.37-.46-.47-.16-.11-.33-.16-.49-.17-.17,0-.34.02-.5.08-.2.07-.38.19-.54.35s-.31.35-.44.59h-.08c-.22-.23-.38-.49-.48-.76-.06-.16-.1-.32-.11-.48,0-.16,0-.3.05-.43.04-.13.11-.25.21-.36.1-.1.22-.18.36-.24.24-.09.49-.11.76-.05s.52.16.78.32.51.36.76.6c.25.24.48.51.7.78.21.28.41.57.58.87.17.3.31.58.41.86.19.5.29.95.31,1.35.02.4-.04.75-.17,1.05-.13.3-.34.57-.61.78-.27.22-.6.4-.99.55-.27.1-.57.2-.9.29-.33.09-.68.19-1.05.29-.37.1-.74.21-1.13.32-.39.11-.76.24-1.13.38-.59.22-.98.51-1.18.88-.2.37-.22.76-.07,1.17.14.37.41.73.81,1.1l-.19.31c-.39-.22-.73-.49-1.02-.81-.28-.32-.5-.69-.66-1.11-.12-.31-.18-.61-.19-.91s.04-.57.15-.83.27-.49.5-.69c.23-.21.52-.37.88-.51.11-.04.21-.07.32-.11s.23-.06.35-.08l-.02-.04c-.43-.07-.86-.18-1.3-.32-.44-.14-.86-.32-1.24-.55-.39-.22-.73-.49-1.03-.79-.3-.3-.53-.66-.68-1.06-.12-.33-.19-.65-.19-.96,0-.31.04-.59.14-.85.1-.26.25-.48.44-.68.19-.2.43-.34.71-.45.36-.13.71-.18,1.07-.13.35.05.7.16,1.03.35s.66.44.97.76c.31.32.61.68.89,1.09s.54.85.78,1.33c.24.48.46.98.66,1.5.27-.06.53-.13.78-.2.25-.07.52-.16.81-.27ZM11.98,146.97c-.16.06-.3.14-.43.23-.13.09-.23.21-.31.34-.08.13-.12.27-.13.43s.02.34.09.53c.08.21.21.42.38.62.17.2.37.38.61.54s.49.31.78.43.58.22.89.29c.31.07.62.1.94.11.32,0,.62-.03.93-.11-.14-.35-.29-.69-.45-1.03s-.33-.65-.52-.94c-.18-.29-.38-.55-.58-.77-.21-.23-.42-.41-.65-.54-.23-.13-.47-.22-.73-.25-.25-.03-.52,0-.8.11Z"/>
      <path class="cls-7" d="M13.97,158.48l-.05-.11c.39-.14.82-.29,1.27-.47s.92-.35,1.39-.54c.47-.18.93-.37,1.39-.56.46-.19.89-.36,1.28-.53.4-.16.75-.32,1.06-.45.31-.14.56-.25.73-.33.15-.07.27-.13.37-.2s.17-.13.22-.22c.05-.08.07-.18.06-.28,0-.11-.05-.24-.12-.4-.04-.08-.08-.16-.12-.24-.05-.08-.1-.17-.16-.26s-.14-.2-.22-.31c-.08-.11-.18-.25-.3-.4l.38-.3c.59.66,1.05,1.2,1.37,1.63.32.43.52.73.59.9.14.3.17.56.08.76-.09.2-.29.37-.59.51-.03.01-.11.05-.25.1-.14.05-.32.12-.54.21-.22.08-.48.18-.78.29-.29.11-.61.22-.95.35-.34.12-.7.25-1.07.37-.37.13-.74.25-1.11.37l.03.07c.88-.14,1.72-.22,2.52-.25.8-.03,1.53.01,2.18.13.66.12,1.22.32,1.7.61.48.29.83.68,1.06,1.18.08.18.13.35.16.53.02.17.02.34-.02.49-.03.15-.09.29-.18.41-.09.12-.2.21-.34.27-.18.08-.37.12-.58.1-.21-.01-.42-.09-.63-.22l-.03-.06c.05-.26.06-.49.04-.69s-.07-.4-.16-.59c-.1-.21-.22-.39-.38-.56-.16-.16-.34-.3-.54-.4-.33-.17-.71-.29-1.16-.36-.44-.07-.91-.1-1.41-.1-.5,0-1.01.04-1.53.1-.52.06-1.02.13-1.5.23-.48.09-.92.19-1.33.3s-.75.21-1.02.3l-.83-1.38Z"/>
      <path class="cls-7" d="M27.09,164.44c.11.21.21.42.32.63.1.2.2.39.29.56s.17.33.25.47c.08.14.14.26.19.35.22.41.42.73.61.97-.05.06-.1.11-.15.15-.05.04-.09.08-.14.1-.17.09-.32.07-.46-.07-.14-.14-.29-.36-.46-.67-.16-.3-.32-.63-.49-1.02s-.36-.8-.56-1.25c-.44.17-.86.35-1.26.53-.41.18-.79.35-1.14.52-.36.17-.68.33-.98.48-.3.15-.56.28-.78.4-.41.22-.76.44-1.06.67-.29.22-.52.46-.68.71-.16.25-.23.51-.23.8s.09.59.27.93c.13.24.31.49.55.75.23.26.53.53.9.83-.04.18-.13.32-.27.41-.31-.19-.6-.39-.88-.61-.28-.21-.54-.43-.78-.65-.24-.22-.45-.45-.64-.68-.19-.23-.34-.46-.47-.69-.16-.3-.26-.6-.3-.9-.04-.3.01-.61.15-.92.14-.31.38-.63.74-.95.35-.32.84-.65,1.46-.99.78-.42,1.56-.81,2.33-1.17.78-.36,1.54-.68,2.29-.98-.11-.19-.21-.35-.31-.51-.1-.15-.2-.29-.29-.4,0,0,.02-.02.04-.03l.03-.02c.16-.09.32-.06.5.09s.38.36.59.65c.49-.2.96-.38,1.41-.54.45-.16.87-.31,1.26-.45s.75-.25,1.07-.35c.32-.1.6-.19.84-.26.11-.03.22-.03.31,0s.19.07.27.13c.08.06.16.13.22.22.07.09.12.17.17.26.08.15.14.29.18.42.04.13.06.27.07.39-.83.21-1.67.46-2.51.75-.84.29-1.67.6-2.47.92Z"/>
      <path class="cls-7" d="M31.17,171.01c-.47.18-.93.38-1.39.59s-.9.41-1.31.62-.81.41-1.17.62-.69.39-.98.56c-.39.24-.71.44-.98.63-.27.18-.49.35-.66.49-.17.15-.3.28-.38.39-.09.12-.14.23-.16.33-.02.1-.01.21.02.31s.09.21.16.32c.13.21.29.42.49.63.2.21.43.41.67.6l-.21.3c-.2-.09-.43-.22-.69-.39-.26-.17-.51-.36-.76-.56-.25-.2-.48-.41-.69-.63-.21-.22-.37-.41-.48-.6-.07-.12-.13-.24-.18-.35s-.06-.23-.04-.35c.02-.12.07-.25.16-.39.09-.14.24-.3.43-.48s.46-.38.78-.6c.32-.23.72-.48,1.2-.77.28-.17.6-.36.95-.57.36-.21.74-.43,1.15-.66.41-.23.85-.47,1.31-.73.46-.25.94-.5,1.44-.76.11-.06.21-.07.31-.06.1.02.19.06.28.12.09.06.16.13.23.22s.13.17.18.25c.18.29.29.6.33.93ZM33.35,168.91c-.09-.15-.15-.3-.17-.45-.02-.15,0-.29.03-.43s.1-.26.19-.37c.09-.11.19-.21.31-.28.17-.1.34-.16.5-.17.17-.01.33,0,.48.06s.29.13.41.23c.12.1.22.21.29.33.09.15.15.29.17.44.03.15.02.29,0,.42-.03.13-.08.26-.16.37-.08.11-.18.2-.3.28-.13.08-.28.13-.44.16-.16.02-.32.02-.48,0-.16-.03-.31-.09-.46-.19-.14-.09-.27-.22-.36-.38Z"/>
      <path class="cls-7" d="M36.63,180.99c-.11.4-.27.73-.47,1-.21.27-.44.5-.71.69-.28.2-.59.35-.92.45-.33.1-.68.15-1.03.16s-.72-.04-1.08-.13c-.36-.09-.72-.22-1.07-.4-.35-.18-.68-.4-.99-.67-.31-.27-.59-.58-.84-.93-.06-.09-.12-.19-.18-.28-.06-.09-.11-.19-.17-.3-.13-.13-.26-.24-.39-.32-.13-.09-.27-.15-.4-.19-.13-.05-.25-.07-.37-.06-.11,0-.21.03-.29.09-.16.11-.24.28-.25.5,0,.22.03.48.12.78.09.3.21.63.38.99.16.36.33.74.51,1.13.16.35.32.7.47,1.05.15.35.29.68.4,1.02.11.33.2.65.26.96.06.31.08.6.06.87s-.09.52-.21.75-.3.43-.55.6c-.31.22-.65.36-1.03.43-.38.07-.78.08-1.19.01s-.84-.19-1.28-.37c-.44-.18-.87-.42-1.3-.71-.43-.29-.84-.64-1.23-1.03-.4-.39-.76-.82-1.09-1.3-.19-.28-.38-.58-.56-.91-.18-.33-.34-.67-.47-1.01-.14-.35-.24-.7-.31-1.05-.07-.35-.1-.69-.08-1.01.02-.32.09-.62.22-.89.13-.27.33-.5.61-.7.23-.16.48-.27.75-.33.27-.06.55-.08.84-.06.29.02.58.07.87.16.29.09.58.19.86.33.28.13.54.28.79.44.25.16.48.33.68.51h.04c-.05-.2-.09-.4-.12-.6-.03-.2-.04-.39-.02-.58.02-.19.06-.36.14-.53s.19-.3.35-.41c.18-.13.38-.19.59-.2.21,0,.43.03.65.1.22.07.43.17.64.29.21.12.4.25.58.37-.12-.4-.18-.78-.19-1.15s.03-.72.12-1.04.23-.62.42-.89c.19-.27.42-.5.69-.69.47-.33.97-.53,1.52-.59s1.09-.02,1.63.14c.54.16,1.06.42,1.56.78.5.36.93.8,1.3,1.33.14.2.26.39.35.58.09.18.17.36.23.53.06.17.11.33.15.48.04.15.07.29.1.43.04.21.09.4.15.59.06.19.15.38.29.58.12.17.25.31.41.43s.32.21.49.26c.17.06.34.07.52.05.17-.02.34-.09.5-.2.02-.02.05-.04.07-.05.02-.02.04-.04.07-.06l.11.05c.09.37.1.68.03.94-.07.26-.19.45-.36.57-.14.1-.28.15-.43.16-.15.01-.3-.01-.46-.08-.16-.06-.31-.16-.46-.29s-.29-.29-.43-.48c-.21-.29-.38-.64-.51-1.05h-.04ZM26.26,182.13c-.28-.25-.57-.46-.89-.63-.31-.18-.64-.3-.96-.38s-.65-.09-.97-.04c-.32.05-.62.17-.89.36-.34.24-.57.54-.7.89-.12.35-.17.73-.13,1.12.03.4.13.8.3,1.2s.37.77.6,1.11c.32.46.69.85,1.1,1.19.41.33.84.58,1.27.75.43.16.86.24,1.28.22.42-.02.8-.15,1.14-.39.19-.14.32-.3.4-.49.07-.19.1-.4.09-.63-.01-.23-.06-.48-.14-.75-.08-.27-.19-.56-.31-.86-.17-.41-.36-.84-.56-1.28s-.42-.9-.62-1.38ZM30.4,181.15c.16.22.33.4.53.54.19.13.4.23.61.3.21.06.42.09.64.09.22,0,.43-.03.64-.08.21-.05.41-.12.6-.21.19-.09.37-.19.52-.3.2-.14.38-.3.55-.48.17-.18.33-.38.46-.59.13-.21.24-.44.32-.68.08-.24.12-.48.13-.73,0-.25-.03-.5-.1-.76-.08-.26-.2-.52-.38-.77-.17-.24-.35-.43-.55-.57-.2-.15-.4-.25-.62-.32-.21-.07-.43-.1-.64-.1-.22,0-.43.02-.64.07-.21.05-.41.12-.6.2-.19.09-.36.18-.51.29-.2.14-.38.3-.56.49-.18.19-.33.39-.46.6-.13.22-.23.45-.31.69-.08.24-.12.5-.13.75,0,.26.03.52.11.78.08.26.21.52.39.78Z"/>
      <path class="cls-7" d="M29.94,190.64c.3.15.61.27.93.35.33.08.64.12.95.12.3,0,.59-.04.86-.11.27-.07.49-.18.67-.33.15-.12.25-.24.31-.36.06-.12.09-.25.1-.37,0-.12,0-.24-.02-.36s-.03-.24-.03-.35c0-.12.02-.23.06-.34.04-.11.12-.21.25-.32.11-.09.23-.15.36-.18.13-.03.27-.04.41-.02s.28.07.41.15c.13.08.26.19.37.33.16.2.26.4.31.61.04.21.05.41,0,.6-.04.19-.12.38-.24.55s-.25.32-.41.45c-.27.22-.61.4-1.01.54-.4.14-.83.22-1.3.25-.47.03-.97-.02-1.49-.13-.52-.11-1.04-.31-1.56-.59l.08-.5Z"/>
      <path class="cls-7" d="M48.72,193.65c-.42.28-.83.57-1.24.86s-.79.59-1.15.89c-.36.29-.7.58-1.02.85s-.59.52-.84.75c-.33.31-.61.58-.83.82s-.41.44-.54.62c-.14.18-.24.33-.3.46-.06.13-.09.25-.09.36,0,.11.03.21.09.3.06.09.13.18.22.28.17.18.37.35.61.51.24.16.5.31.78.44l-.15.34c-.22-.05-.47-.13-.76-.24s-.57-.24-.86-.39c-.29-.15-.56-.3-.81-.47s-.45-.33-.6-.48c-.1-.1-.18-.2-.25-.3-.07-.1-.1-.21-.11-.33s.02-.26.08-.42.17-.35.33-.56c.16-.22.37-.47.64-.75.27-.29.6-.62,1.01-1.01.24-.22.51-.48.81-.75.3-.28.63-.57.99-.89.35-.31.73-.64,1.13-.98.4-.34.82-.69,1.25-1.04.1-.08.19-.12.3-.12.1,0,.2.02.3.06s.19.1.27.17.16.14.22.2c.23.25.41.53.51.84ZM50.4,191.13c-.12-.13-.21-.27-.26-.41s-.07-.29-.06-.43c0-.14.04-.27.1-.4s.14-.24.24-.34c.14-.13.29-.23.46-.27.16-.05.32-.06.48-.04.16.02.31.06.44.14.14.07.26.16.35.27.12.13.21.26.26.4s.08.28.08.41c0,.14-.03.27-.08.39-.05.12-.13.24-.24.34-.11.1-.24.19-.39.25-.15.06-.31.09-.47.09-.16,0-.33-.03-.49-.09-.16-.06-.31-.16-.44-.3Z"/>
      <path class="cls-7" d="M50.73,198.15c.12-.13.21-.25.27-.36.06-.11.09-.21.09-.31,0-.1-.02-.19-.07-.28-.05-.09-.13-.18-.22-.27-.13-.12-.31-.26-.53-.4-.22-.14-.47-.29-.76-.46l.23-.42c.34.16.66.33.97.49.31.16.58.31.84.45.25.14.47.27.65.39.18.12.32.22.41.3.22.2.34.41.36.63.02.22-.09.47-.34.74-.03.03-.1.1-.22.21-.12.11-.26.25-.44.42-.18.17-.38.36-.62.58s-.48.44-.75.68c-.27.24-.54.49-.83.74-.29.25-.58.5-.87.75l.03.04c1.04-.57,1.99-.99,2.84-1.26.85-.27,1.61-.43,2.27-.47.66-.05,1.23,0,1.71.16.48.15.87.36,1.17.64.21.19.38.41.52.66.13.25.21.51.23.8.02.29-.04.59-.16.9-.12.32-.34.64-.64.97-.09.1-.21.22-.38.37-.16.15-.34.32-.54.5-.2.18-.42.37-.65.57s-.45.4-.67.6c-.22.2-.42.39-.61.57s-.35.35-.48.49c-.23.25-.4.47-.52.64s-.19.34-.22.48c-.03.14,0,.28.05.39.06.12.16.24.3.37.2.18.42.34.67.49.25.15.53.28.82.39l-.12.35c-.22-.03-.48-.09-.77-.18-.3-.09-.59-.2-.89-.33-.3-.13-.59-.27-.86-.43-.27-.16-.49-.31-.67-.47-.2-.19-.32-.38-.35-.58-.03-.2,0-.41.09-.62.09-.21.22-.44.4-.67.18-.23.38-.47.61-.72.28-.3.57-.6.89-.9.32-.3.62-.58.92-.84.29-.26.56-.5.8-.71s.43-.39.56-.53c.34-.38.52-.73.51-1.06,0-.33-.14-.62-.41-.87-.22-.2-.52-.33-.9-.39-.38-.06-.82-.07-1.31-.01-.49.06-1.02.17-1.58.34-.56.17-1.13.4-1.71.67-.58.27-1.14.6-1.69.96-.55.37-1.06.78-1.53,1.22l-1.29-.95-.09-.09c.31-.28.64-.58,1-.92.36-.34.71-.68,1.08-1.03.36-.35.72-.7,1.07-1.05.35-.35.68-.68.98-.98.3-.3.57-.58.81-.82s.42-.44.55-.59Z"/>
      <path class="cls-7" d="M74.77,205.02c-.81.78-1.63,1.58-2.46,2.4s-1.64,1.66-2.43,2.51c-.79.84-1.55,1.69-2.28,2.53-.73.85-1.4,1.68-2.02,2.5-.3.39-.54.74-.75,1.03-.2.29-.36.54-.49.75-.12.21-.21.39-.26.53-.05.14-.07.27-.05.38.01.11.05.2.11.28s.15.16.25.24c.2.15.43.28.69.4s.55.22.85.3l-.09.36c-.22,0-.48-.04-.78-.11-.3-.06-.61-.14-.92-.24-.31-.1-.6-.21-.88-.33-.27-.12-.5-.25-.67-.38-.13-.09-.23-.19-.3-.28-.08-.09-.12-.2-.15-.31-.02-.11-.02-.23.01-.37.03-.14.09-.29.18-.47.12-.24.27-.5.46-.8s.4-.61.65-.93c.26-.35.54-.69.84-1.03s.62-.66.96-.97l-.05-.05c-.84.47-1.67.86-2.46,1.15s-1.54.5-2.24.61c-.69.11-1.32.13-1.88.05-.56-.08-1.02-.25-1.38-.53-.37-.28-.62-.59-.77-.95s-.21-.73-.18-1.12c.03-.39.12-.78.29-1.18.17-.4.39-.77.66-1.13.32-.43.69-.81,1.12-1.14.42-.33.88-.61,1.36-.83.49-.22.99-.38,1.52-.48.53-.1,1.06-.13,1.59-.09.53.04,1.06.15,1.57.33.52.18,1,.45,1.46.79.32.24.62.52.89.83.27.31.5.66.7,1.06.46-.58.94-1.16,1.43-1.75.49-.59.97-1.16,1.45-1.71.47-.55.93-1.06,1.37-1.54.44-.48.83-.9,1.19-1.26.07-.08.16-.12.26-.14s.2-.02.31,0c.11.03.22.07.34.13.11.06.23.13.33.21.24.18.46.43.65.75ZM67.05,210.74c-.38-.64-.85-1.16-1.39-1.56-.4-.3-.8-.52-1.21-.66-.41-.14-.82-.22-1.23-.23-.41,0-.81.04-1.2.15s-.76.26-1.11.45-.68.43-.98.7c-.3.27-.57.56-.81.87-.08.11-.17.25-.27.4-.1.15-.19.32-.27.5s-.15.37-.2.56c-.05.19-.08.38-.09.56,0,.18.03.36.1.52.07.16.18.3.34.43.29.22.66.35,1.11.39s.93.02,1.46-.08c.52-.09,1.07-.24,1.63-.45.56-.21,1.1-.45,1.62-.72.52-.27,1-.57,1.44-.88.44-.32.8-.63,1.08-.95Z"/>
      <path class="cls-7" d="M74.22,214.52c-.34.37-.67.75-.99,1.14-.32.39-.62.77-.91,1.14-.28.37-.55.73-.79,1.07-.24.34-.45.65-.63.93-.25.38-.45.71-.61.99-.16.28-.29.53-.38.73-.09.21-.15.38-.18.52-.03.14-.03.26,0,.37.03.1.08.19.16.27s.17.15.28.22c.21.13.45.25.72.35.27.1.56.18.87.24l-.06.36c-.22,0-.49,0-.79-.05-.3-.04-.61-.1-.93-.17s-.62-.16-.9-.26c-.28-.1-.51-.21-.69-.33-.12-.08-.22-.16-.31-.24-.09-.08-.15-.18-.19-.3-.04-.12-.05-.26-.02-.43.02-.17.08-.38.18-.62.1-.25.25-.54.44-.88.19-.34.44-.75.74-1.22.18-.27.38-.58.61-.92s.48-.71.75-1.1c.27-.39.56-.8.86-1.22.31-.43.63-.86.96-1.31.07-.1.16-.16.26-.19.1-.03.2-.03.3-.02s.21.05.31.1c.1.05.19.1.27.14.29.19.52.42.7.69ZM75.26,211.68c-.15-.1-.27-.21-.35-.34-.08-.13-.14-.26-.16-.4s-.02-.28,0-.42.08-.27.16-.38c.11-.17.23-.29.38-.37.15-.08.3-.14.46-.16.16-.02.31-.01.46.03.15.04.29.09.41.17.15.09.26.2.35.32.09.12.14.25.18.38.03.13.04.27.01.4-.02.13-.07.26-.15.38-.08.13-.19.24-.32.33s-.28.16-.44.21c-.16.04-.32.05-.49.03-.17-.02-.34-.08-.49-.19Z"/>
      <path class="cls-7" d="M74.35,225.61c.15-.4.29-.82.44-1.26.15-.44.29-.9.43-1.36.14-.46.27-.92.4-1.37s.24-.89.34-1.31c.1-.42.19-.8.27-1.16s.14-.67.18-.93c.04-.27.07-.5.07-.68s-.01-.34-.05-.47-.09-.23-.18-.32c-.08-.08-.18-.16-.31-.23-.14-.08-.3-.15-.48-.22-.18-.07-.39-.14-.64-.22l.13-.47c.31.07.62.14.91.21.3.07.56.15.81.22.25.07.46.15.64.21.18.07.32.13.42.19.12.07.22.15.3.24.08.09.14.21.18.35.04.14.07.31.07.51s-.02.43-.07.71c-.03.18-.07.42-.13.7-.06.28-.13.6-.22.96-.09.36-.19.74-.3,1.15-.11.41-.23.83-.37,1.26-.13.43-.27.86-.42,1.3s-.31.86-.47,1.28c.38-.15.76-.31,1.15-.48.39-.17.78-.35,1.15-.53.38-.19.74-.38,1.09-.59s.68-.43.98-.66c.3-.23.58-.47.82-.72.24-.25.44-.51.59-.78.19-.34.3-.7.33-1.08.03-.38-.06-.78-.27-1.2l.15-.1c.08.04.16.08.24.11.08.04.15.08.22.12.59.34.98.71,1.14,1.12.17.41.13.83-.11,1.25-.18.32-.47.64-.86.97-.39.32-.85.63-1.36.94-.52.3-1.07.6-1.67.88-.6.28-1.19.54-1.79.78-.59.24-1.16.46-1.7.65-.54.2-1.02.36-1.43.5l-.67-.46Z"/>
      <path class="cls-7" d="M87.98,222.17c-.3.41-.58.82-.86,1.24-.27.42-.53.83-.77,1.23s-.46.78-.66,1.15c-.2.37-.37.7-.52,1-.2.41-.36.76-.49,1.06-.13.3-.23.55-.29.77-.07.21-.1.39-.11.54-.01.14,0,.26.04.36.04.1.1.18.18.25.08.07.19.13.3.19.22.11.47.2.75.26.28.07.58.12.89.14l-.02.37c-.22.03-.48.05-.79.04-.31,0-.62-.03-.94-.06s-.63-.09-.92-.16-.54-.15-.73-.24c-.13-.06-.24-.13-.34-.2-.1-.07-.17-.16-.22-.27s-.07-.25-.07-.42c0-.17.04-.38.11-.64.07-.26.18-.57.33-.93.15-.36.35-.79.59-1.3.14-.29.31-.62.5-.99.19-.37.39-.76.62-1.18.22-.42.46-.86.71-1.32s.52-.93.81-1.41c.06-.11.14-.18.23-.22.09-.04.19-.05.3-.05.1,0,.21.03.32.06s.2.07.28.11c.31.15.56.35.78.61ZM88.69,219.23c-.16-.08-.29-.18-.38-.29-.1-.12-.16-.24-.21-.38-.04-.13-.06-.27-.04-.41.01-.14.05-.28.11-.4.09-.18.2-.31.33-.42.13-.1.28-.17.43-.21.15-.04.31-.05.46-.03.15.02.3.06.42.13.16.08.28.17.38.28.1.11.17.23.22.36.05.13.07.26.06.4,0,.14-.04.27-.1.4-.07.14-.16.26-.28.37s-.26.19-.41.25c-.15.06-.31.09-.49.09-.17,0-.34-.04-.51-.13Z"/>
      <path class="cls-7" d="M104.16,220.03c-.59.96-1.17,1.94-1.77,2.95-.59,1.01-1.16,2.02-1.71,3.04s-1.07,2.03-1.56,3.03c-.49,1-.93,1.98-1.31,2.93-.18.46-.34.85-.46,1.18-.12.33-.21.62-.28.85s-.1.43-.11.58c0,.15,0,.28.05.38s.1.18.18.24c.08.06.18.11.31.16.23.09.48.16.77.21.29.05.58.07.9.08v.37c-.21.05-.47.08-.78.1s-.62.02-.95,0c-.32-.01-.63-.05-.93-.09-.3-.05-.54-.11-.74-.19-.15-.06-.27-.12-.37-.2-.1-.07-.17-.16-.22-.26-.05-.1-.08-.22-.08-.36,0-.14.01-.31.05-.5.06-.26.14-.56.24-.89s.23-.69.39-1.07c.16-.4.35-.81.55-1.21s.43-.8.68-1.18l-.06-.04c-.7.67-1.39,1.25-2.09,1.74-.7.49-1.37.88-2.01,1.16-.64.28-1.25.46-1.81.53-.56.07-1.05.01-1.47-.16-.43-.17-.75-.41-.99-.72s-.39-.65-.46-1.03c-.07-.38-.08-.78-.02-1.21.06-.43.18-.85.35-1.26.2-.5.46-.96.79-1.39.32-.43.69-.81,1.11-1.15.41-.34.86-.62,1.35-.85.48-.23.99-.4,1.51-.5.52-.1,1.06-.12,1.6-.08.55.04,1.08.17,1.62.39.37.15.73.34,1.07.57.34.23.65.51.95.85.3-.68.61-1.36.94-2.06s.64-1.37.96-2.02.63-1.26.93-1.84c.3-.57.58-1.08.83-1.52.05-.09.12-.16.21-.21.09-.05.19-.07.3-.07.11,0,.23,0,.36.04s.25.07.37.12c.28.11.55.3.81.56ZM98.16,227.53c-.53-.52-1.11-.9-1.74-1.16-.46-.19-.9-.29-1.34-.33s-.85,0-1.25.1c-.4.1-.77.25-1.12.45-.35.2-.67.44-.96.72-.29.28-.55.59-.77.92s-.41.69-.56,1.05c-.05.13-.11.28-.16.45s-.1.36-.13.55c-.03.2-.05.39-.05.59s.02.39.06.56c.04.18.12.34.22.48.11.14.25.25.44.32.34.14.73.17,1.17.09.44-.07.91-.22,1.39-.44.48-.22.97-.51,1.46-.85.49-.34.95-.71,1.38-1.11.43-.4.82-.8,1.16-1.22.34-.42.61-.82.8-1.19Z"/>
      <path class="cls-7" d="M105.94,230.4c-.08.28-.18.59-.3.9-.12.32-.24.64-.37.96-.13.33-.26.65-.4.97-.13.32-.26.63-.38.91-.12.29-.23.55-.32.79-.1.24-.17.45-.22.61-.15.5-.14.89,0,1.19s.41.5.78.6c.42.12.9.06,1.44-.2.55-.25,1.13-.69,1.74-1.31.61-.62,1.19-1.34,1.74-2.18s1.02-1.77,1.41-2.81l1.6.3.12.04c-.16.38-.33.79-.49,1.23s-.33.87-.49,1.31c-.16.44-.31.87-.45,1.29-.14.42-.26.81-.37,1.17-.2.68-.32,1.25-.35,1.71s-.02.84.06,1.13c.07.29.19.51.35.66.16.15.34.25.53.31.11.03.23.05.34.06s.23,0,.34,0c.11,0,.21-.02.3-.04.09-.02.17-.04.24-.05l.16.36c-.18.08-.38.15-.59.21-.21.06-.43.1-.66.12-.22.02-.45.02-.69,0-.23-.02-.46-.06-.69-.13-.28-.08-.54-.21-.78-.39-.24-.18-.43-.41-.57-.69-.14-.29-.22-.64-.23-1.05-.01-.41.06-.9.23-1.46.05-.18.11-.36.18-.54s.14-.37.22-.57.17-.41.27-.64.22-.48.34-.75l-.08-.04c-.64.95-1.26,1.72-1.86,2.32-.6.6-1.17,1.05-1.7,1.36-.54.31-1.04.5-1.5.57-.47.07-.88.04-1.26-.07-.28-.08-.53-.2-.77-.36s-.42-.36-.57-.6-.23-.54-.26-.88c-.03-.34.02-.73.15-1.18.09-.29.21-.63.36-1,.15-.37.32-.77.49-1.2.18-.42.35-.86.53-1.32.18-.45.33-.91.47-1.36.05-.18.09-.34.12-.48.02-.14.03-.26,0-.36-.02-.1-.08-.19-.16-.26-.08-.07-.21-.13-.37-.18-.17-.05-.39-.09-.67-.13s-.57-.06-.89-.08l.02-.48c.44,0,.84,0,1.21.01s.7.03.99.05c.29.02.53.05.73.07.2.03.34.05.43.08.18.05.31.12.41.21.1.09.16.19.2.32.04.13.05.26.03.42s-.05.32-.11.51Z"/>
      <path class="cls-7" d="M122.02,240.69s.06.04.1.08c.04.03.08.07.12.1s.06.07.09.11.03.07.03.1c0,.02-.01.03-.03.05-.35.28-.71.5-1.08.68-.37.18-.75.32-1.13.41-.38.09-.76.14-1.13.15-.38,0-.74-.03-1.09-.1-.6-.12-1.13-.34-1.58-.65s-.83-.69-1.11-1.12c-.28-.44-.48-.92-.58-1.45s-.1-1.07.02-1.63c.09-.46.25-.9.46-1.33.21-.43.47-.83.78-1.2.31-.37.66-.7,1.05-.99s.82-.53,1.28-.7c.46-.18.95-.29,1.47-.34.52-.05,1.06-.02,1.62.1.37.08.71.19,1.03.34.32.15.59.34.8.55.22.21.38.45.48.72s.12.55.06.85c-.09.43-.33.78-.73,1.04s-.91.44-1.54.54c-.63.11-1.36.15-2.18.12-.82-.02-1.7-.1-2.63-.22l-.02.11c-.11.55-.13,1.06-.06,1.55s.21.92.43,1.3c.22.38.5.7.85.96.35.26.74.43,1.19.52.45.09.93.09,1.44,0,.51-.09,1.05-.3,1.62-.63ZM121.67,235.26c.04-.2.04-.39,0-.57s-.12-.36-.23-.51c-.11-.15-.25-.29-.43-.4-.18-.11-.37-.19-.59-.23-.32-.07-.63-.08-.91-.03s-.55.13-.79.25-.47.28-.67.48c-.21.19-.39.4-.55.63-.16.23-.31.47-.43.72-.12.25-.23.5-.31.74.72.1,1.37.16,1.95.17.58.01,1.08-.03,1.51-.11.42-.09.76-.22,1.01-.41s.41-.43.47-.72Z"/>
      <path class="cls-7" d="M130.31,226.23c-.21.72-.42,1.46-.62,2.21s-.42,1.52-.62,2.29-.4,1.55-.59,2.33c-.19.78-.37,1.56-.54,2.32-.17.76-.32,1.51-.46,2.25s-.26,1.45-.35,2.13c-.06.43-.11.79-.14,1.1-.03.31-.05.57-.05.78,0,.22.01.39.04.53s.07.24.13.32c.06.08.14.14.23.18.09.04.2.07.34.09.24.04.51.04.8.02s.59-.07.89-.14l.09.36c-.2.1-.45.19-.74.28-.29.09-.6.17-.92.23-.32.06-.63.11-.93.13-.3.03-.56.02-.77,0-.27-.04-.48-.13-.62-.27-.14-.14-.24-.35-.28-.63-.04-.28-.05-.63,0-1.07.04-.43.1-.96.19-1.57.03-.22.09-.54.16-.96.08-.41.17-.89.27-1.44.11-.55.23-1.15.36-1.8.13-.65.27-1.32.41-2.02.14-.69.29-1.39.44-2.1s.29-1.39.43-2.05c.14-.66.28-1.28.4-1.87s.24-1.1.34-1.55c.02-.1.07-.19.15-.25.08-.07.17-.11.28-.14s.23-.05.36-.05c.13,0,.26,0,.39.02.3.04.61.16.92.34Z"/>
      <path class="cls-7" d="M136.04,226.85c-.17.73-.35,1.47-.52,2.24-.18.76-.35,1.54-.51,2.32-.17.78-.33,1.57-.48,2.36-.15.79-.3,1.57-.43,2.34-.13.77-.25,1.52-.35,2.27-.1.74-.19,1.46-.26,2.14-.04.43-.07.8-.09,1.11s-.02.57-.02.79c0,.22.03.39.06.53.04.13.09.24.15.32.06.08.14.13.24.17.09.03.21.06.34.07.24.02.51.02.8-.02.29-.03.58-.1.88-.18l.11.35c-.19.11-.44.21-.73.32-.29.1-.59.19-.91.27-.32.08-.62.14-.92.17-.3.04-.55.05-.77.03-.27-.03-.48-.11-.63-.24-.15-.13-.25-.34-.31-.62s-.08-.63-.06-1.07.06-.96.12-1.58c.02-.22.06-.55.12-.96.06-.42.13-.9.21-1.45s.17-1.16.27-1.81c.1-.66.21-1.33.32-2.03.11-.7.22-1.41.34-2.12.12-.71.23-1.4.34-2.07.11-.66.22-1.29.32-1.88.1-.59.19-1.11.27-1.56.02-.1.06-.19.13-.26s.16-.12.27-.16c.11-.04.23-.06.36-.07.13,0,.26,0,.4,0,.3.03.62.13.94.3Z"/>
      <path class="cls-7" d="M136.53,247.53c.31-.12.61-.27.88-.46.28-.19.52-.4.72-.62.2-.23.37-.46.49-.71.12-.25.19-.48.2-.71.01-.19-.01-.35-.07-.47s-.12-.23-.21-.32c-.08-.09-.18-.17-.28-.23-.1-.07-.2-.14-.28-.21-.08-.08-.15-.17-.21-.27-.06-.1-.08-.23-.07-.39,0-.14.04-.27.11-.39.07-.12.15-.23.26-.32.11-.09.24-.16.39-.2s.31-.06.49-.05c.25.01.47.08.66.18s.34.24.45.4c.12.16.2.34.25.54s.07.4.06.6c-.02.35-.11.72-.27,1.11-.16.39-.39.77-.69,1.14-.3.37-.66.71-1.09,1.02-.43.31-.93.57-1.48.76l-.32-.39Z"/>
      <path class="cls-7" d="M156.64,244.74c-.19-.82-.41-1.66-.66-2.54-.25-.87-.53-1.75-.82-2.63-.12.27-.26.57-.43.88s-.33.63-.52.96c-.18.33-.37.67-.58,1-.2.34-.4.66-.6.98-.2.32-.4.62-.59.91-.2.29-.38.55-.56.79l-.84-.03c-.09-.41-.19-.85-.31-1.3s-.24-.91-.36-1.37c-.13-.46-.26-.92-.39-1.36-.13-.45-.27-.87-.4-1.27-.13-.4-.26-.77-.38-1.1-.12-.34-.23-.62-.33-.85-.12-.27-.23-.49-.32-.66-.1-.17-.2-.3-.3-.39-.1-.09-.2-.15-.31-.18-.11-.03-.23-.04-.37-.03-.16,0-.34.03-.52.08-.18.04-.4.09-.66.16l-.14-.46c.67-.25,1.25-.44,1.74-.58s.85-.21,1.06-.23c.13,0,.25,0,.37.04.12.03.23.09.34.18s.21.21.32.37c.11.16.21.36.32.61.08.18.17.4.27.67.1.27.21.57.32.91.11.34.23.7.36,1.09.12.39.25.8.37,1.22.12.42.24.85.35,1.29.11.44.22.87.31,1.3.1-.15.22-.34.36-.57.14-.22.28-.47.42-.73.15-.26.29-.53.44-.81.15-.28.28-.54.4-.8s.23-.5.32-.72c.09-.22.15-.41.19-.57.02-.11.04-.21.05-.31s0-.2,0-.3c0-.13-.03-.28-.05-.43-.03-.15-.06-.31-.11-.46-.04-.16-.09-.31-.14-.46-.05-.16-.1-.3-.15-.44-.04-.12-.07-.21-.07-.28,0-.14.04-.25.14-.33.1-.08.27-.13.52-.14.16,0,.33,0,.5.03.17.03.33.07.49.13.19.53.39,1.09.6,1.67.2.58.41,1.17.6,1.77s.39,1.19.57,1.78.35,1.16.49,1.7c.33-.5.65-1.02.97-1.54s.59-1.04.83-1.56c.24-.52.43-1.03.56-1.53s.19-.99.16-1.46c-.01-.2-.04-.39-.08-.57-.04-.18-.1-.36-.19-.52-.08-.16-.19-.32-.33-.47s-.3-.28-.5-.4l.07-.16c.09-.01.18-.03.27-.04s.17-.02.25-.02c.68-.04,1.18.07,1.52.33.34.26.52.63.55,1.11.02.37-.04.79-.18,1.27-.14.48-.34.98-.6,1.51-.25.53-.54,1.07-.87,1.62-.33.55-.66,1.09-1.01,1.61s-.69,1.01-1.02,1.47c-.33.46-.63.87-.89,1.21l-.82-.03Z"/>
      <path class="cls-7" d="M164.87,231.5c-.18.02-.34.01-.48-.03-.14-.04-.27-.11-.38-.2-.11-.09-.2-.19-.27-.32-.07-.13-.11-.26-.13-.4-.03-.19-.01-.37.05-.53.06-.16.14-.3.25-.41.11-.12.23-.21.37-.28.14-.07.28-.11.42-.13.17-.02.33-.02.47.02.14.04.27.09.38.18s.2.18.27.3c.07.12.11.25.13.39.02.15,0,.31-.03.46-.04.16-.11.3-.2.44s-.21.25-.36.34-.31.15-.5.18ZM165.91,234.34c-.02.5-.03,1.01-.02,1.51,0,.5.02.99.04,1.45.02.47.05.91.09,1.32.04.41.08.79.12,1.12.06.45.12.83.17,1.15.06.32.12.59.18.8.06.21.13.38.2.51s.15.22.24.28c.09.06.18.09.29.1.11,0,.23,0,.36-.01.24-.03.5-.1.77-.2.27-.1.54-.22.82-.37l.19.32c-.17.15-.38.31-.64.47-.26.17-.53.32-.82.47-.29.15-.57.27-.86.38-.28.1-.53.17-.74.2-.14.02-.27.03-.39.02-.12,0-.23-.04-.33-.1-.1-.06-.2-.17-.3-.31-.09-.14-.18-.34-.26-.59-.08-.25-.16-.57-.24-.96-.08-.38-.15-.85-.22-1.41-.04-.32-.09-.69-.13-1.1-.05-.41-.09-.85-.14-1.32-.05-.47-.09-.97-.13-1.49s-.08-1.06-.11-1.62c0-.12.02-.22.08-.31.06-.08.13-.15.22-.21.09-.05.19-.09.3-.12.11-.03.21-.05.3-.06.34-.04.67-.02.98.08Z"/>
      <path class="cls-7" d="M177.92,239.52s.07.02.13.03.1.03.15.05.09.04.12.07c.04.03.06.05.06.09,0,.02,0,.04-.01.06-.22.39-.46.73-.74,1.04-.28.31-.57.58-.89.81s-.65.42-.99.57-.69.26-1.04.32c-.6.11-1.17.11-1.71,0-.54-.11-1.03-.32-1.46-.61-.43-.29-.79-.67-1.09-1.12-.3-.45-.5-.96-.61-1.52-.09-.46-.12-.93-.08-1.41.03-.48.12-.95.26-1.41s.34-.9.59-1.31c.25-.42.56-.8.91-1.14.36-.34.77-.63,1.23-.88.46-.24.97-.42,1.53-.53.37-.07.73-.09,1.08-.07s.67.09.95.2.52.27.72.48c.19.21.32.46.38.76.08.44-.01.85-.28,1.24s-.68.75-1.22,1.09c-.54.34-1.2.65-1.96.94-.77.29-1.6.56-2.51.8l.02.11c.1.55.28,1.03.53,1.46s.55.77.89,1.04c.35.27.73.46,1.15.56s.85.12,1.3.03c.45-.09.89-.27,1.33-.55.44-.28.86-.68,1.26-1.2ZM175.53,234.64c-.04-.2-.11-.37-.22-.53-.11-.16-.25-.29-.41-.38-.16-.1-.35-.17-.55-.2s-.42-.03-.64,0c-.33.06-.61.17-.86.32s-.46.33-.64.54c-.18.21-.33.44-.44.7-.12.26-.21.52-.27.79-.06.27-.11.55-.13.83-.02.28-.02.55,0,.81.7-.18,1.33-.37,1.87-.59s.99-.44,1.35-.68c.36-.24.62-.49.78-.76.16-.27.21-.55.16-.84Z"/>
      <path class="cls-7" d="M187.24,230.7c.09.28.18.59.26.92.08.33.16.66.24,1s.15.68.22,1.02c.07.34.14.66.2.97.06.31.13.58.18.84.06.25.11.46.17.63.16.49.39.82.68.97.29.16.62.18.98.06.41-.13.77-.46,1.08-.98.31-.52.54-1.21.7-2.06s.23-1.78.21-2.78-.16-2.04-.42-3.12l1.49-.66.12-.03c.08.41.18.84.29,1.29.11.45.22.9.33,1.36.11.45.23.89.35,1.32.12.43.24.82.36,1.18.22.68.44,1.21.68,1.61.23.4.46.7.68.9.23.2.45.32.66.35s.42.02.61-.04c.11-.04.22-.08.32-.14.1-.06.19-.12.28-.19.09-.07.16-.13.23-.2.07-.07.12-.13.17-.18l.33.21c-.1.17-.22.34-.37.51-.14.17-.3.33-.47.47s-.36.27-.56.39-.42.21-.64.28c-.28.09-.57.13-.86.12s-.58-.09-.86-.25-.54-.4-.78-.74c-.24-.33-.46-.78-.64-1.33-.06-.18-.11-.36-.16-.55-.05-.18-.1-.38-.14-.59-.05-.21-.09-.44-.14-.68s-.09-.51-.14-.81h-.08c0,1.16-.07,2.15-.22,2.98-.16.83-.37,1.53-.63,2.09s-.57,1-.92,1.32-.71.53-1.07.65c-.28.09-.56.13-.84.14-.28,0-.55-.06-.81-.18-.26-.12-.5-.31-.71-.58-.22-.26-.4-.62-.54-1.06-.09-.29-.18-.63-.27-1.03-.09-.4-.18-.82-.27-1.27-.09-.45-.2-.91-.31-1.38-.11-.47-.24-.94-.39-1.39-.06-.18-.12-.34-.18-.47-.06-.13-.12-.23-.2-.3s-.17-.11-.28-.12-.24.01-.41.06c-.17.05-.37.14-.62.27-.25.13-.51.27-.78.44l-.25-.41c.36-.25.69-.47,1.01-.67.31-.2.59-.37.84-.52.25-.14.46-.26.64-.35.18-.09.31-.15.4-.18.17-.06.33-.08.46-.06.13.02.24.07.35.15s.19.19.26.33c.07.14.14.3.2.48Z"/>
      <path class="cls-7" d="M198.44,227.52c-.07-.16-.15-.29-.22-.39s-.16-.17-.25-.21-.18-.06-.28-.04c-.1.01-.21.04-.33.1-.17.07-.36.18-.58.32-.22.14-.46.31-.73.51l-.29-.39c.29-.24.57-.47.84-.69.27-.22.52-.41.75-.58s.44-.32.62-.44c.18-.12.33-.2.44-.25.27-.12.51-.14.72-.07.21.07.39.27.54.61.02.04.05.13.11.28.05.15.12.34.2.57.08.23.17.5.28.79.1.3.21.62.32.96.11.34.23.69.34,1.06.12.37.23.73.34,1.1h.04c-.1-1.2-.1-2.23,0-3.12s.26-1.64.49-2.27c.23-.62.51-1.13.84-1.5.33-.38.68-.65,1.06-.82.26-.11.53-.18.81-.21s.55.02.82.12c.27.1.52.27.76.51s.45.57.63.98c.05.12.11.28.19.49s.15.44.24.7c.08.26.17.53.26.82.09.29.18.57.28.85s.19.54.27.79c.09.25.17.46.25.64.14.31.26.56.38.74.12.18.23.31.35.4.12.08.25.12.38.11.13,0,.29-.05.45-.12.24-.11.48-.25.72-.42.24-.17.46-.37.69-.59l.27.25c-.12.19-.28.4-.48.63-.2.23-.43.46-.66.68-.24.22-.48.43-.74.61-.25.18-.49.32-.7.42-.25.11-.48.14-.67.09s-.37-.16-.53-.33c-.16-.17-.31-.38-.45-.64s-.27-.54-.41-.85c-.16-.37-.32-.77-.46-1.18-.14-.41-.28-.8-.4-1.18s-.23-.72-.33-1.02c-.1-.31-.19-.55-.26-.72-.2-.47-.46-.77-.76-.9-.3-.13-.62-.12-.96.03-.27.12-.51.34-.73.67s-.39.73-.54,1.2c-.15.47-.26,1-.33,1.58-.07.58-.1,1.19-.08,1.83s.08,1.28.2,1.94c.11.65.28,1.28.5,1.89l-1.4.8-.11.04c-.13-.4-.27-.82-.44-1.28-.16-.46-.33-.93-.51-1.4-.17-.47-.35-.94-.53-1.4-.18-.46-.34-.89-.5-1.29-.16-.4-.3-.76-.43-1.07-.13-.32-.23-.56-.31-.74Z"/>
      <path class="cls-7" d="M213.06,226.42c.19.27.42.47.68.6s.54.2.83.22c.29.02.59-.02.89-.1.3-.08.59-.19.85-.33.25-.13.47-.29.67-.47.2-.18.35-.37.47-.58.12-.2.18-.41.21-.62.02-.21-.02-.42-.13-.61-.11-.2-.26-.35-.46-.44s-.42-.15-.68-.18c-.26-.02-.54-.02-.85,0s-.62.06-.95.09c-.29.03-.58.07-.87.1-.29.03-.58.05-.87.06-.29,0-.56,0-.83-.03-.27-.03-.52-.08-.75-.17-.23-.08-.45-.2-.64-.36-.19-.16-.35-.36-.49-.6-.14-.26-.22-.54-.23-.82-.01-.28.03-.56.12-.84.09-.28.22-.55.39-.82.17-.27.37-.52.6-.76.23-.24.48-.46.75-.67s.54-.38.82-.53c.36-.19.72-.35,1.07-.45.36-.11.69-.16,1-.16.31,0,.58.05.83.16.24.11.42.28.55.51.05.09.08.19.1.32s.01.25-.02.39c-.04.14-.11.27-.21.41s-.26.26-.46.37c-.19.1-.4.18-.63.25l-.05-.05c0-.16-.02-.29-.05-.41s-.07-.22-.12-.31c-.1-.17-.23-.29-.4-.36-.17-.07-.35-.1-.54-.09s-.39.04-.6.11-.4.15-.58.25c-.32.17-.58.36-.79.57-.21.21-.37.42-.48.63s-.16.42-.17.63c0,.2.03.39.12.55.11.21.28.36.5.46.22.1.48.16.77.18.29.02.61.02.96,0,.35-.03.71-.06,1.08-.11.42-.05.83-.09,1.25-.12.42-.03.81-.03,1.17.01.37.04.7.14.99.3.3.15.53.4.71.73.21.39.3.8.26,1.22-.04.42-.17.82-.4,1.22s-.53.77-.91,1.12-.81.65-1.29.91c-.24.13-.49.25-.76.35-.27.11-.54.19-.81.26-.27.07-.54.11-.8.14-.26.02-.5.02-.73,0s-.42-.09-.59-.19c-.17-.09-.3-.23-.39-.4-.08-.15-.11-.3-.09-.44.02-.14.07-.28.15-.41.09-.13.2-.25.33-.37.13-.11.28-.22.43-.3h.08Z"/>
      <path class="cls-7" d="M227.23,218.41s.08-.01.13-.02c.05,0,.11,0,.16,0,.05,0,.1,0,.14.02.04.01.07.03.09.06,0,.01.01.03,0,.06-.06.44-.16.85-.3,1.24-.14.39-.32.75-.53,1.08-.21.33-.45.63-.71.9-.27.26-.55.49-.85.68-.52.33-1.05.54-1.59.63-.54.09-1.07.08-1.58-.03-.51-.12-.98-.33-1.43-.64-.44-.31-.82-.71-1.12-1.19-.25-.39-.45-.82-.6-1.28-.15-.46-.24-.92-.28-1.4-.04-.48-.01-.96.07-1.44s.22-.95.43-1.4.48-.87.82-1.27c.34-.39.75-.75,1.23-1.05.32-.2.64-.36.98-.47.33-.11.65-.16.96-.17.3,0,.59.06.84.18.26.12.47.31.63.57.24.37.3.79.2,1.25-.11.46-.35.95-.73,1.46-.38.52-.87,1.05-1.48,1.6-.61.55-1.29,1.11-2.04,1.67l.06.09c.3.47.64.86,1.03,1.16.39.3.79.51,1.21.63s.85.15,1.28.1c.43-.06.84-.21,1.22-.45.39-.25.73-.58,1.03-1,.3-.42.54-.95.73-1.58ZM223.21,214.76c-.11-.17-.24-.31-.4-.41-.16-.1-.33-.17-.52-.21-.19-.03-.38-.03-.59.01-.2.04-.4.12-.59.24-.28.18-.51.38-.68.61-.17.23-.31.47-.39.73-.09.26-.14.53-.15.81-.02.28,0,.56.04.84.04.28.1.55.19.82.08.27.18.52.29.75.59-.43,1.09-.84,1.52-1.23.43-.4.76-.77,1-1.13s.39-.68.44-.99c.05-.31,0-.59-.17-.84Z"/>
      <path class="cls-7" d="M231.52,218.07l-.1.07c-.21-.36-.45-.74-.71-1.15s-.53-.83-.8-1.25c-.27-.42-.55-.84-.82-1.25-.28-.41-.53-.79-.77-1.15s-.46-.67-.65-.95c-.2-.28-.35-.5-.47-.65-.1-.13-.18-.24-.27-.32-.08-.08-.17-.14-.26-.18-.09-.03-.19-.03-.29,0-.1.03-.23.1-.37.2-.07.05-.14.11-.21.17-.07.06-.14.13-.22.21-.08.08-.17.17-.26.28-.1.11-.21.23-.33.37l-.37-.31c.52-.71.97-1.27,1.33-1.67s.61-.65.76-.76c.27-.2.51-.28.73-.23s.42.21.62.47c.02.02.07.1.15.22.08.13.18.29.31.49s.27.44.44.7c.17.27.34.56.53.86s.38.63.58.97c.2.34.4.67.59,1.01l.07-.04c-.31-.83-.56-1.64-.75-2.41-.19-.78-.29-1.5-.31-2.16s.07-1.26.26-1.79c.19-.52.5-.95.94-1.28.16-.12.32-.2.48-.26s.33-.09.48-.08c.15,0,.3.03.43.1.13.06.25.15.34.27.12.16.19.34.22.54.03.2,0,.43-.09.67l-.05.04c-.26,0-.49.04-.69.1-.19.06-.38.15-.55.28-.18.14-.34.3-.47.49-.13.19-.22.39-.28.61-.1.35-.14.76-.12,1.2s.08.92.19,1.4.24.98.4,1.48.34.97.52,1.43c.18.45.37.87.56,1.24.19.38.35.69.5.94l-1.18,1.09Z"/>
      <path class="cls-7" d="M242.83,206.24s.07-.02.13-.03c.05-.01.1-.02.15-.03s.1,0,.14,0,.08.02.1.04c.01.01.02.03.02.06,0,.44-.04.87-.13,1.27-.09.4-.21.78-.37,1.14-.16.36-.36.69-.58.98s-.48.56-.75.79c-.47.4-.96.68-1.49.85s-1.05.23-1.57.19-1.02-.19-1.5-.44-.91-.59-1.27-1.02c-.3-.36-.56-.75-.77-1.18s-.37-.88-.47-1.35c-.1-.47-.14-.95-.13-1.44.01-.49.09-.97.23-1.44s.35-.93.63-1.37c.28-.44.64-.84,1.07-1.21.29-.24.59-.44.91-.6.32-.15.63-.25.93-.3.3-.04.59-.02.86.06.27.08.51.24.7.47.29.34.41.74.37,1.21-.04.47-.22.99-.52,1.55-.3.56-.72,1.16-1.24,1.79-.52.63-1.12,1.28-1.79,1.94l.07.09c.36.42.75.76,1.18,1s.86.4,1.29.46c.43.06.86.04,1.28-.08s.8-.32,1.14-.61c.35-.3.64-.68.89-1.13.24-.46.41-1.02.5-1.67ZM238.34,203.18c-.13-.15-.28-.27-.45-.35-.17-.08-.35-.13-.54-.13-.19,0-.38.02-.58.09-.2.07-.38.18-.55.32-.25.21-.45.45-.59.7s-.24.51-.29.78c-.05.27-.07.55-.04.82.02.28.08.55.15.82.08.27.18.53.3.78s.25.49.4.7c.52-.5.97-.98,1.34-1.43.37-.45.65-.87.84-1.25.19-.38.29-.73.3-1.04,0-.31-.08-.58-.28-.81Z"/>
      <path class="cls-7" d="M243.35,190.03c.14.12.31.28.51.48.21.2.46.44.76.72.3.29.65.62,1.05,1,.4.38.86.82,1.37,1.3.47-.56.93-1.1,1.36-1.62s.87-1.03,1.3-1.53.86-1,1.3-1.5c.43-.5.88-1.01,1.35-1.54-.32-.31-.64-.61-.96-.92-.32-.31-.66-.64-1.01-.98s-.73-.72-1.12-1.13c-.4-.41-.84-.86-1.31-1.36-.07-.07-.11-.15-.11-.24s0-.19.04-.29c.03-.11.08-.21.14-.32s.14-.2.22-.3c.1-.11.22-.22.35-.32.14-.11.28-.2.44-.28.48.53.95,1.04,1.4,1.51.45.48.89.94,1.33,1.38.44.44.87.87,1.3,1.3.43.42.87.84,1.32,1.26.45.42.91.84,1.38,1.28.47.43.97.88,1.49,1.34.35.31.66.55.93.73.27.18.53.3.76.35s.45.04.65-.04c.2-.08.4-.23.59-.45.14-.16.27-.33.4-.51s.26-.44.4-.76l.54.19c-.14.36-.28.7-.42,1s-.27.58-.4.83c-.13.25-.26.47-.4.67-.13.2-.27.38-.41.54-.19.22-.4.38-.61.48-.22.1-.45.14-.71.1-.26-.03-.54-.14-.85-.32-.31-.18-.65-.44-1.04-.78l-1.11-.98c-.26-.23-.5-.45-.73-.66-.23-.21-.45-.41-.67-.61-.21-.2-.42-.39-.62-.58-.2-.19-.4-.37-.6-.56-.47.53-.92,1.04-1.35,1.53-.44.5-.87,1-1.3,1.5-.43.5-.86,1.01-1.3,1.54-.44.52-.89,1.07-1.35,1.64l5.3,5.05-1.06,1.48-.1.09c-.89-.88-1.75-1.71-2.56-2.49-.81-.78-1.6-1.54-2.37-2.27-.77-.73-1.54-1.45-2.3-2.15-.76-.7-1.54-1.4-2.33-2.11-.15-.14-.3-.24-.43-.31s-.26-.1-.39-.1c-.13,0-.26.06-.4.15s-.29.23-.46.42c-.22.25-.48.6-.78,1.03l-.46-.3c.37-.66.7-1.21.98-1.65.28-.44.54-.79.77-1.05.23-.26.43-.43.62-.52.19-.09.37-.13.54-.1.17.03.35.11.53.24.18.13.37.29.58.47Z"/>
      <path class="cls-7" d="M257.88,180.45c.24.17.49.36.76.58.26.21.53.43.79.66.27.23.53.46.79.69.26.23.51.45.74.65.23.21.45.39.65.56.2.17.37.3.51.4.42.3.8.42,1.13.37s.6-.23.82-.54c.25-.35.34-.83.28-1.43-.06-.6-.29-1.29-.68-2.07-.39-.78-.89-1.56-1.5-2.35-.61-.79-1.35-1.53-2.21-2.24l.8-1.42.08-.1c.31.28.65.56,1,.86.36.3.72.59,1.08.89.36.29.72.57,1.07.84.35.27.68.51.99.73.58.41,1.08.7,1.51.88s.79.28,1.09.31c.3.02.55-.02.74-.12.19-.1.35-.24.46-.4.07-.1.12-.2.17-.31s.08-.22.11-.32c.03-.11.05-.2.06-.3.01-.09.02-.18.03-.25l.39-.03c.02.2.03.4.01.63-.01.22-.05.44-.1.66s-.12.44-.22.65-.21.42-.34.61c-.17.24-.38.45-.62.62s-.52.27-.84.31c-.32.04-.67,0-1.07-.12-.4-.12-.83-.35-1.31-.68-.15-.11-.31-.22-.46-.34s-.31-.25-.47-.39c-.16-.14-.34-.29-.52-.46-.18-.17-.38-.36-.6-.57l-.06.06c.69.91,1.23,1.75,1.6,2.51.37.76.62,1.44.74,2.05.12.61.14,1.14.05,1.61-.09.46-.24.85-.47,1.17-.17.24-.36.44-.59.61-.22.17-.47.28-.75.34s-.58.05-.92-.03c-.33-.08-.69-.26-1.07-.52-.25-.18-.53-.4-.83-.66s-.63-.55-.97-.85c-.34-.3-.7-.61-1.08-.92-.37-.31-.75-.61-1.14-.88-.16-.11-.3-.2-.42-.27s-.24-.11-.34-.12c-.1-.01-.2.01-.3.07-.09.06-.19.16-.29.3s-.21.34-.34.59-.24.52-.36.82l-.45-.18c.14-.41.27-.79.4-1.14.13-.35.25-.66.37-.92.11-.27.21-.49.3-.67.09-.18.16-.3.21-.38.11-.15.22-.26.33-.32.11-.06.24-.09.37-.09.13,0,.27.04.41.1s.29.15.45.27Z"/>
      <path class="cls-7" d="M264.93,171.18c-.16-.09-.29-.15-.41-.18-.12-.03-.23-.04-.32-.02-.09.02-.18.07-.25.13-.07.07-.14.16-.21.28-.09.16-.18.36-.27.6s-.18.52-.28.85l-.47-.13c.08-.37.17-.72.26-1.05s.17-.64.25-.92.16-.52.24-.72c.08-.2.14-.36.2-.47.15-.26.33-.42.54-.49.21-.07.48-.01.8.17.04.02.12.08.26.16.13.09.3.2.51.33.2.14.44.29.7.47.26.18.54.37.83.57.29.21.6.42.91.64s.62.45.93.68l.03-.04c-.79-.89-1.41-1.72-1.86-2.49s-.78-1.47-.97-2.11c-.19-.64-.27-1.2-.23-1.7.04-.5.16-.93.36-1.29.14-.25.32-.46.53-.65.21-.18.45-.32.73-.4s.58-.1.92-.05c.34.05.7.18,1.09.41.11.06.26.16.44.28.18.12.39.26.61.42.22.16.46.32.7.5.25.18.49.35.73.52s.47.32.69.47.42.27.59.36c.3.17.54.29.75.37s.38.11.52.11.27-.05.37-.14c.1-.09.2-.21.29-.37.13-.23.24-.48.33-.76.09-.28.15-.57.2-.88l.37.04c.02.22.02.49,0,.8-.03.31-.07.62-.12.94-.06.32-.13.63-.22.93-.09.3-.2.55-.31.76-.14.24-.3.4-.49.47s-.4.09-.62.05c-.23-.04-.47-.12-.74-.24-.27-.13-.54-.27-.84-.44-.36-.2-.71-.42-1.08-.67-.36-.24-.7-.48-1.02-.71-.32-.23-.61-.44-.87-.62-.26-.19-.48-.33-.64-.42-.44-.25-.83-.34-1.15-.26-.32.08-.57.28-.76.6-.15.26-.21.58-.18.97.02.39.12.82.28,1.28.16.46.39.95.69,1.46.29.51.64,1.01,1.03,1.51s.83.98,1.32,1.43c.48.46.99.86,1.54,1.21l-.64,1.47-.07.1c-.34-.24-.71-.5-1.12-.77-.41-.27-.82-.55-1.24-.82-.42-.27-.84-.54-1.26-.81s-.81-.51-1.17-.74c-.36-.23-.69-.43-.98-.6s-.52-.31-.69-.41Z"/>
      <path class="cls-7" d="M266.25,146.21c.94.62,1.9,1.24,2.89,1.86.99.62,1.99,1.23,2.99,1.81s1.99,1.14,2.98,1.66,1.95.99,2.89,1.41c.45.2.84.37,1.17.5s.61.23.84.31.43.12.58.13c.15.01.28,0,.38-.03.1-.04.18-.09.25-.17.06-.08.12-.18.17-.3.1-.22.18-.48.23-.76.06-.28.09-.58.11-.89h.37c.04.22.06.49.07.79s0,.62-.03.95c-.03.32-.07.63-.12.93-.06.3-.13.54-.22.74-.06.14-.13.26-.21.36s-.17.17-.27.21-.22.07-.36.07c-.14,0-.31-.02-.5-.07-.26-.06-.55-.15-.88-.27-.33-.12-.68-.26-1.06-.42-.4-.18-.8-.37-1.19-.59-.4-.22-.78-.46-1.16-.72l-.04.06c.65.72,1.21,1.43,1.67,2.14.47.71.83,1.39,1.09,2.04.26.65.42,1.26.47,1.82.05.56-.02,1.05-.2,1.47-.19.42-.44.74-.75.96s-.66.36-1.05.43-.79.05-1.21-.02-.84-.21-1.25-.39c-.49-.22-.94-.49-1.36-.83s-.79-.72-1.11-1.14c-.32-.42-.59-.88-.81-1.38-.22-.49-.37-1-.45-1.53-.08-.53-.09-1.06-.03-1.61.06-.54.21-1.08.44-1.61.16-.37.37-.72.61-1.05.24-.33.53-.64.88-.92-.67-.32-1.34-.66-2.02-1s-1.35-.69-1.99-1.03c-.64-.34-1.24-.67-1.81-.98s-1.06-.61-1.5-.88c-.09-.06-.16-.13-.2-.22-.04-.09-.06-.19-.07-.31s.02-.23.05-.36c.03-.12.07-.25.13-.37.12-.28.32-.54.58-.8ZM273.55,152.46c-.53.52-.94,1.08-1.21,1.7-.2.45-.32.9-.37,1.33-.04.44-.03.85.06,1.25.08.4.22.78.41,1.14.19.36.42.69.69.99.27.3.57.57.9.8.33.24.67.44,1.03.59.13.06.28.12.45.17.17.06.35.11.55.15.19.04.39.06.59.07.2,0,.39,0,.57-.04.18-.04.34-.11.48-.21s.26-.24.34-.43c.15-.34.19-.73.13-1.17-.06-.44-.19-.91-.4-1.4-.21-.49-.47-.99-.8-1.48-.33-.5-.68-.97-1.06-1.42-.38-.45-.78-.85-1.18-1.2-.41-.36-.8-.64-1.17-.84Z"/>
      <path class="cls-7" d="M283.96,142.46s.05-.06.09-.09c.04-.04.08-.07.12-.1.04-.03.08-.05.12-.07s.08-.02.1-.01c.02,0,.03.02.04.04.23.38.41.77.54,1.16.13.39.22.78.26,1.17.04.39.04.77,0,1.14s-.12.73-.24,1.07c-.2.58-.48,1.07-.85,1.49-.37.41-.79.73-1.26.96-.47.23-.97.35-1.51.39s-1.08-.04-1.62-.23c-.44-.15-.86-.36-1.26-.63-.4-.26-.76-.57-1.09-.93-.32-.35-.61-.74-.84-1.17-.24-.43-.41-.88-.53-1.36-.12-.48-.17-.98-.15-1.5.02-.52.12-1.05.31-1.59.12-.36.28-.68.47-.98.19-.29.41-.54.65-.73s.5-.32.77-.38.56-.05.85.05c.42.15.73.43.93.86.2.43.32.96.34,1.6.02.64-.03,1.36-.16,2.17-.13.81-.31,1.67-.55,2.58l.11.04c.53.18,1.04.27,1.53.26.49,0,.94-.09,1.34-.26.41-.17.76-.41,1.06-.72.3-.31.52-.68.67-1.11.15-.43.21-.91.19-1.43-.03-.52-.16-1.08-.42-1.69ZM278.53,142.11c-.19-.06-.38-.09-.57-.07s-.37.07-.54.16c-.17.09-.32.22-.45.37-.13.16-.24.34-.31.56-.11.31-.16.61-.15.9,0,.29.06.56.15.82s.22.5.38.73c.16.23.35.44.55.63.21.19.42.37.66.52s.46.29.7.4c.2-.7.34-1.34.42-1.91s.11-1.08.08-1.51c-.03-.43-.12-.78-.27-1.05-.15-.27-.37-.46-.65-.56Z"/>
    </g>
  </g>
</svg>